<svg width="1280" height="640" viewBox="0 0 1280 640" fill="none" xmlns="http://www.w3.org/2000/svg">
<rect width="1280" height="640" fill="#18181B"/>
<path d="M376.344 334.416C371.117 335.76 364.323 337.104 355.96 338.448C347.597 339.941 338.413 340.688 328.408 340.688C319 340.688 311.085 339.344 304.664 336.656C298.392 333.968 293.315 330.235 289.432 325.456C285.699 320.677 283.011 315.003 281.368 308.432C279.725 301.712 278.904 294.395 278.904 286.48V220.848H306.008V282.224C306.008 294.768 307.8 303.728 311.384 309.104C315.117 314.48 321.539 317.168 330.648 317.168C333.933 317.168 337.368 317.019 340.952 316.72C344.685 316.421 347.448 316.048 349.24 315.6V220.848H376.344V334.416ZM479.61 279.984C479.61 267.888 476.847 258.48 471.322 251.76C465.946 245.04 457.21 241.68 445.114 241.68C442.575 241.68 439.887 241.829 437.05 242.128C434.362 242.277 431.674 242.725 428.986 243.472V310.448C431.375 312.091 434.511 313.659 438.394 315.152C442.426 316.496 446.682 317.168 451.162 317.168C461.018 317.168 468.186 313.808 472.666 307.088C477.295 300.368 479.61 291.333 479.61 279.984ZM507.386 279.536C507.386 288.496 506.191 296.709 503.802 304.176C501.562 311.643 498.276 318.064 493.946 323.44C489.615 328.816 484.164 332.997 477.594 335.984C471.172 338.971 463.855 340.464 455.642 340.464C450.116 340.464 445.039 339.792 440.41 338.448C435.78 337.104 431.972 335.611 428.986 333.968V379.44H401.882V224.656C407.407 223.163 414.202 221.744 422.266 220.4C430.33 219.056 438.842 218.384 447.802 218.384C457.06 218.384 465.348 219.803 472.666 222.64C479.983 225.477 486.18 229.584 491.258 234.96C496.484 240.187 500.442 246.608 503.13 254.224C505.967 261.691 507.386 270.128 507.386 279.536Z" fill="#F3B549"/>
<path d="M574.071 164.176C580.343 164.176 585.869 164.773 590.647 165.968C595.426 167.013 599.01 167.984 601.399 168.88L596.247 191.28C593.709 190.085 590.722 189.115 587.287 188.368C584.002 187.621 580.418 187.248 576.535 187.248C572.205 187.248 568.546 187.92 565.559 189.264C562.573 190.459 560.183 192.176 558.391 194.416C556.599 196.656 555.33 199.419 554.583 202.704C553.837 205.84 553.463 209.275 553.463 213.008V220.848H596.023V243.472H553.463V338H526.359V212.56C526.359 197.477 530.317 185.68 538.231 177.168C546.146 168.507 558.093 164.176 574.071 164.176ZM598.403 279.984C598.403 269.68 599.897 260.645 602.883 252.88C606.019 245.115 610.126 238.693 615.203 233.616C620.281 228.389 626.105 224.507 632.675 221.968C639.246 219.28 645.966 217.936 652.835 217.936C668.963 217.936 681.507 222.939 690.467 232.944C699.577 242.949 704.131 257.883 704.131 277.744C704.131 279.237 704.057 280.955 703.907 282.896C703.907 284.688 703.833 286.331 703.683 287.824H626.403C627.15 297.232 630.435 304.549 636.259 309.776C642.233 314.853 650.819 317.392 662.019 317.392C668.59 317.392 674.563 316.795 679.939 315.6C685.465 314.405 689.795 313.136 692.931 311.792L696.515 333.968C695.022 334.715 692.931 335.536 690.243 336.432C687.705 337.179 684.718 337.851 681.283 338.448C677.998 339.195 674.414 339.792 670.531 340.24C666.649 340.688 662.691 340.912 658.659 340.912C648.355 340.912 639.395 339.419 631.779 336.432C624.163 333.296 617.891 329.04 612.963 323.664C608.035 318.139 604.377 311.717 601.987 304.4C599.598 296.933 598.403 288.795 598.403 279.984ZM677.027 267.888C677.027 264.155 676.505 260.645 675.459 257.36C674.414 253.925 672.846 251.013 670.755 248.624C668.814 246.085 666.35 244.144 663.363 242.8C660.526 241.307 657.091 240.56 653.059 240.56C648.878 240.56 645.219 241.381 642.083 243.024C638.947 244.517 636.259 246.533 634.019 249.072C631.929 251.611 630.286 254.523 629.091 257.808C627.897 261.093 627.075 264.453 626.627 267.888H677.027ZM722.564 189.936L749.668 185.456V220.848H791.332V243.472H749.668V291.184C749.668 300.592 751.161 307.312 754.148 311.344C757.135 315.376 762.212 317.392 769.38 317.392C774.308 317.392 778.639 316.869 782.372 315.824C786.255 314.779 789.316 313.808 791.556 312.912L796.036 334.416C792.9 335.76 788.793 337.104 783.716 338.448C778.639 339.941 772.665 340.688 765.796 340.688C757.433 340.688 750.415 339.568 744.74 337.328C739.215 335.088 734.809 331.877 731.524 327.696C728.239 323.365 725.924 318.213 724.58 312.24C723.236 306.117 722.564 299.173 722.564 291.408V189.936ZM799.671 279.536C799.671 270.875 801.015 262.811 803.703 255.344C806.391 247.728 810.199 241.157 815.127 235.632C820.204 230.107 826.327 225.776 833.495 222.64C840.663 219.504 848.727 217.936 857.687 217.936C868.737 217.936 879.191 219.952 889.047 223.984L883.223 246.16C880.087 244.816 876.503 243.696 872.471 242.8C868.588 241.904 864.407 241.456 859.927 241.456C849.324 241.456 841.26 244.816 835.735 251.536C830.209 258.107 827.447 267.44 827.447 279.536C827.447 291.184 830.06 300.443 835.287 307.312C840.513 314.032 849.324 317.392 861.719 317.392C866.348 317.392 870.903 316.944 875.383 316.048C879.863 315.152 883.745 314.032 887.031 312.688L890.839 335.088C887.852 336.581 883.297 337.925 877.175 339.12C871.201 340.315 865.004 340.912 858.583 340.912C848.577 340.912 839.841 339.419 832.375 336.432C825.057 333.296 818.935 329.04 814.007 323.664C809.228 318.139 805.644 311.643 803.255 304.176C800.865 296.56 799.671 288.347 799.671 279.536ZM902.863 338V168.656L929.967 164.176V222.192C932.954 221.147 936.388 220.251 940.271 219.504C944.303 218.757 948.26 218.384 952.143 218.384C961.551 218.384 969.316 219.728 975.439 222.416C981.711 224.955 986.714 228.613 990.447 233.392C994.18 238.021 996.794 243.621 998.287 250.192C999.93 256.763 1000.75 264.08 1000.75 272.144V338H973.647V276.4C973.647 270.128 973.199 264.827 972.303 260.496C971.556 256.016 970.212 252.432 968.271 249.744C966.479 246.907 964.015 244.891 960.879 243.696C957.743 242.352 953.86 241.68 949.231 241.68C945.647 241.68 941.988 242.053 938.255 242.8C934.522 243.547 931.759 244.219 929.967 244.816V338H902.863Z" fill="#FCFCFC"/>
<path d="M277.279 460C276.772 458.64 276.292 457.333 275.839 456.08C275.386 454.827 274.946 453.6 274.519 452.4H261.039C260.586 453.6 260.132 454.827 259.679 456.08C259.226 457.333 258.759 458.64 258.279 460H255.439C256.506 457.12 257.506 454.44 258.439 451.96C259.372 449.453 260.279 447.093 261.159 444.88C262.066 442.64 262.959 440.493 263.839 438.44C264.719 436.387 265.652 434.333 266.639 432.28H269.039C270.026 434.333 270.959 436.387 271.839 438.44C272.719 440.493 273.599 442.64 274.479 444.88C275.386 447.093 276.306 449.453 277.239 451.96C278.172 454.44 279.186 457.12 280.279 460H277.279ZM267.759 435.4C266.746 437.693 265.759 440.027 264.799 442.4C263.866 444.773 262.892 447.333 261.879 450.08H273.679C272.666 447.333 271.679 444.773 270.719 442.4C269.759 440.027 268.772 437.693 267.759 435.4ZM300.544 459.36C299.771 459.627 298.784 459.88 297.584 460.12C296.384 460.36 294.864 460.48 293.024 460.48C291.504 460.48 290.117 460.24 288.864 459.76C287.637 459.253 286.571 458.533 285.664 457.6C284.784 456.667 284.091 455.533 283.584 454.2C283.104 452.867 282.864 451.36 282.864 449.68C282.864 448.107 283.064 446.667 283.464 445.36C283.891 444.027 284.504 442.88 285.304 441.92C286.104 440.96 287.077 440.213 288.224 439.68C289.397 439.147 290.731 438.88 292.224 438.88C293.584 438.88 294.757 439.08 295.744 439.48C296.757 439.853 297.491 440.213 297.944 440.56V429.44L300.544 428.96V459.36ZM297.944 443.08C297.704 442.893 297.397 442.693 297.024 442.48C296.677 442.267 296.264 442.067 295.784 441.88C295.304 441.693 294.784 441.547 294.224 441.44C293.664 441.307 293.077 441.24 292.464 441.24C291.184 441.24 290.104 441.467 289.224 441.92C288.371 442.373 287.677 442.987 287.144 443.76C286.611 444.507 286.224 445.4 285.984 446.44C285.744 447.453 285.624 448.533 285.624 449.68C285.624 452.4 286.304 454.493 287.664 455.96C289.024 457.4 290.824 458.12 293.064 458.12C294.344 458.12 295.371 458.067 296.144 457.96C296.944 457.827 297.544 457.693 297.944 457.56V443.08ZM313.664 457.2C314.224 456.053 314.798 454.747 315.384 453.28C315.971 451.787 316.531 450.253 317.064 448.68C317.624 447.08 318.131 445.48 318.584 443.88C319.064 442.253 319.464 440.733 319.784 439.32H322.384C321.904 441.213 321.371 443.08 320.784 444.92C320.198 446.76 319.571 448.56 318.904 450.32C318.264 452.08 317.584 453.773 316.864 455.4C316.171 457.027 315.491 458.56 314.824 460H312.344C311.651 458.56 310.958 457.027 310.264 455.4C309.571 453.773 308.891 452.08 308.224 450.32C307.584 448.56 306.971 446.76 306.384 444.92C305.798 443.08 305.264 441.213 304.784 439.32H307.544C307.864 440.733 308.251 442.253 308.704 443.88C309.184 445.48 309.691 447.08 310.224 448.68C310.784 450.253 311.358 451.787 311.944 453.28C312.531 454.747 313.104 456.053 313.664 457.2ZM333.163 458.12C334.176 458.12 335.056 458.093 335.803 458.04C336.576 457.96 337.23 457.867 337.763 457.76V450.48C337.47 450.347 337.003 450.213 336.363 450.08C335.723 449.92 334.843 449.84 333.723 449.84C333.083 449.84 332.416 449.893 331.723 450C331.03 450.08 330.39 450.28 329.803 450.6C329.216 450.893 328.736 451.307 328.363 451.84C327.99 452.373 327.803 453.08 327.803 453.96C327.803 454.733 327.923 455.387 328.163 455.92C328.43 456.453 328.79 456.88 329.243 457.2C329.723 457.52 330.283 457.76 330.923 457.92C331.59 458.053 332.336 458.12 333.163 458.12ZM332.923 438.84C334.283 438.84 335.43 439.04 336.363 439.44C337.323 439.813 338.096 440.347 338.683 441.04C339.27 441.707 339.696 442.507 339.963 443.44C340.23 444.373 340.363 445.387 340.363 446.48V459.52C340.096 459.6 339.71 459.693 339.203 459.8C338.696 459.88 338.11 459.973 337.443 460.08C336.776 460.187 336.03 460.267 335.203 460.32C334.403 460.4 333.576 460.44 332.723 460.44C331.63 460.44 330.616 460.32 329.683 460.08C328.776 459.84 327.976 459.467 327.283 458.96C326.616 458.427 326.083 457.76 325.683 456.96C325.31 456.133 325.123 455.133 325.123 453.96C325.123 452.84 325.336 451.88 325.763 451.08C326.19 450.28 326.79 449.627 327.563 449.12C328.336 448.587 329.256 448.2 330.323 447.96C331.39 447.72 332.55 447.6 333.803 447.6C334.176 447.6 334.563 447.627 334.963 447.68C335.39 447.707 335.79 447.76 336.163 447.84C336.563 447.893 336.896 447.96 337.163 448.04C337.456 448.093 337.656 448.147 337.763 448.2V446.92C337.763 446.2 337.71 445.507 337.603 444.84C337.496 444.147 337.256 443.533 336.883 443C336.536 442.44 336.03 442 335.363 441.68C334.723 441.333 333.87 441.16 332.803 441.16C331.283 441.16 330.15 441.267 329.403 441.48C328.656 441.693 328.11 441.867 327.763 442L327.403 439.72C327.856 439.507 328.55 439.307 329.483 439.12C330.443 438.933 331.59 438.84 332.923 438.84ZM346.995 440.04C347.768 439.827 348.808 439.587 350.115 439.32C351.421 439.053 353.021 438.92 354.915 438.92C356.488 438.92 357.795 439.147 358.835 439.6C359.901 440.053 360.741 440.707 361.355 441.56C361.995 442.387 362.448 443.387 362.715 444.56C362.981 445.733 363.115 447.027 363.115 448.44V460H360.515V449.28C360.515 447.813 360.408 446.573 360.195 445.56C360.008 444.547 359.675 443.72 359.195 443.08C358.741 442.44 358.128 441.987 357.355 441.72C356.608 441.427 355.661 441.28 354.515 441.28C353.288 441.28 352.221 441.347 351.315 441.48C350.435 441.613 349.861 441.733 349.595 441.84V460H346.995V440.04ZM378.328 460.44C376.728 460.44 375.315 460.187 374.088 459.68C372.861 459.173 371.835 458.453 371.008 457.52C370.208 456.56 369.595 455.427 369.168 454.12C368.741 452.787 368.528 451.32 368.528 449.72C368.528 448.093 368.741 446.613 369.168 445.28C369.621 443.947 370.261 442.8 371.088 441.84C371.915 440.88 372.915 440.147 374.088 439.64C375.261 439.107 376.581 438.84 378.048 438.84C379.168 438.84 380.208 438.933 381.168 439.12C382.155 439.307 382.915 439.547 383.448 439.84L382.768 442.08C382.235 441.813 381.635 441.6 380.968 441.44C380.301 441.28 379.408 441.2 378.288 441.2C375.995 441.2 374.248 441.947 373.048 443.44C371.875 444.907 371.288 447 371.288 449.72C371.288 450.947 371.421 452.08 371.688 453.12C371.955 454.133 372.381 455.013 372.968 455.76C373.581 456.48 374.355 457.053 375.288 457.48C376.248 457.88 377.408 458.08 378.768 458.08C379.888 458.08 380.821 457.96 381.568 457.72C382.341 457.453 382.901 457.227 383.248 457.04L383.808 459.28C383.328 459.547 382.568 459.8 381.528 460.04C380.515 460.307 379.448 460.44 378.328 460.44ZM386.927 449.64C386.927 447.827 387.18 446.253 387.687 444.92C388.22 443.56 388.9 442.427 389.727 441.52C390.58 440.613 391.54 439.947 392.607 439.52C393.7 439.067 394.82 438.84 395.967 438.84C398.5 438.84 400.513 439.667 402.007 441.32C403.527 442.973 404.287 445.52 404.287 448.96C404.287 449.173 404.273 449.387 404.247 449.6C404.247 449.813 404.233 450.013 404.207 450.2H389.687C389.767 452.733 390.393 454.68 391.567 456.04C392.74 457.4 394.607 458.08 397.167 458.08C398.58 458.08 399.7 457.947 400.527 457.68C401.353 457.413 401.953 457.187 402.327 457L402.807 459.24C402.433 459.453 401.727 459.707 400.687 460C399.673 460.293 398.473 460.44 397.087 460.44C395.273 460.44 393.727 460.173 392.447 459.64C391.167 459.107 390.113 458.36 389.287 457.4C388.46 456.44 387.86 455.307 387.487 454C387.113 452.667 386.927 451.213 386.927 449.64ZM401.607 448C401.553 445.84 401.047 444.16 400.087 442.96C399.127 441.76 397.767 441.16 396.007 441.16C395.073 441.16 394.233 441.347 393.487 441.72C392.767 442.093 392.127 442.6 391.567 443.24C391.033 443.853 390.607 444.573 390.287 445.4C389.993 446.227 389.82 447.093 389.767 448H401.607ZM426.521 459.36C425.747 459.627 424.761 459.88 423.561 460.12C422.361 460.36 420.841 460.48 419.001 460.48C417.481 460.48 416.094 460.24 414.841 459.76C413.614 459.253 412.547 458.533 411.641 457.6C410.761 456.667 410.067 455.533 409.561 454.2C409.081 452.867 408.841 451.36 408.841 449.68C408.841 448.107 409.041 446.667 409.441 445.36C409.867 444.027 410.481 442.88 411.281 441.92C412.081 440.96 413.054 440.213 414.201 439.68C415.374 439.147 416.707 438.88 418.201 438.88C419.561 438.88 420.734 439.08 421.721 439.48C422.734 439.853 423.467 440.213 423.921 440.56V429.44L426.521 428.96V459.36ZM423.921 443.08C423.681 442.893 423.374 442.693 423.001 442.48C422.654 442.267 422.241 442.067 421.761 441.88C421.281 441.693 420.761 441.547 420.201 441.44C419.641 441.307 419.054 441.24 418.441 441.24C417.161 441.24 416.081 441.467 415.201 441.92C414.347 442.373 413.654 442.987 413.121 443.76C412.587 444.507 412.201 445.4 411.961 446.44C411.721 447.453 411.601 448.533 411.601 449.68C411.601 452.4 412.281 454.493 413.641 455.96C415.001 457.4 416.801 458.12 419.041 458.12C420.321 458.12 421.347 458.067 422.121 457.96C422.921 457.827 423.521 457.693 423.921 457.56V443.08ZM450.103 428.96C451.223 428.96 452.129 429.053 452.823 429.24C453.543 429.4 454.009 429.547 454.223 429.68L453.703 431.92C453.409 431.787 452.969 431.653 452.383 431.52C451.823 431.36 451.103 431.28 450.223 431.28C448.383 431.28 447.063 431.747 446.263 432.68C445.489 433.613 445.103 435.107 445.103 437.16V439.32H453.423V441.52H445.103V460H442.503V437.08C442.503 434.387 443.116 432.36 444.342 431C445.596 429.64 447.516 428.96 450.103 428.96ZM456.302 449.64C456.302 447.827 456.555 446.253 457.062 444.92C457.595 443.56 458.275 442.427 459.102 441.52C459.955 440.613 460.915 439.947 461.982 439.52C463.075 439.067 464.195 438.84 465.342 438.84C467.875 438.84 469.888 439.667 471.382 441.32C472.902 442.973 473.662 445.52 473.662 448.96C473.662 449.173 473.648 449.387 473.622 449.6C473.622 449.813 473.608 450.013 473.582 450.2H459.062C459.142 452.733 459.768 454.68 460.942 456.04C462.115 457.4 463.982 458.08 466.542 458.08C467.955 458.08 469.075 457.947 469.902 457.68C470.728 457.413 471.328 457.187 471.702 457L472.182 459.24C471.808 459.453 471.102 459.707 470.062 460C469.048 460.293 467.848 460.44 466.462 460.44C464.648 460.44 463.102 460.173 461.822 459.64C460.542 459.107 459.488 458.36 458.662 457.4C457.835 456.44 457.235 455.307 456.862 454C456.488 452.667 456.302 451.213 456.302 449.64ZM470.982 448C470.928 445.84 470.422 444.16 469.462 442.96C468.502 441.76 467.142 441.16 465.382 441.16C464.448 441.16 463.608 441.347 462.862 441.72C462.142 442.093 461.502 442.6 460.942 443.24C460.408 443.853 459.982 444.573 459.662 445.4C459.368 446.227 459.195 447.093 459.142 448H470.982ZM481.896 439.32H490.136V441.52H481.896V452.52C481.896 453.693 481.989 454.653 482.176 455.4C482.389 456.12 482.682 456.68 483.056 457.08C483.429 457.48 483.882 457.747 484.416 457.88C484.949 458.013 485.536 458.08 486.176 458.08C487.269 458.08 488.149 457.96 488.816 457.72C489.482 457.453 490.002 457.213 490.376 457L491.016 459.16C490.642 459.4 489.989 459.68 489.056 460C488.122 460.293 487.109 460.44 486.016 460.44C484.736 460.44 483.656 460.28 482.776 459.96C481.922 459.613 481.229 459.107 480.696 458.44C480.189 457.747 479.829 456.893 479.616 455.88C479.402 454.867 479.296 453.667 479.296 452.28V433.24L481.896 432.76V439.32ZM503.484 460.44C501.884 460.44 500.471 460.187 499.244 459.68C498.018 459.173 496.991 458.453 496.164 457.52C495.364 456.56 494.751 455.427 494.324 454.12C493.898 452.787 493.684 451.32 493.684 449.72C493.684 448.093 493.898 446.613 494.324 445.28C494.778 443.947 495.418 442.8 496.244 441.84C497.071 440.88 498.071 440.147 499.244 439.64C500.418 439.107 501.738 438.84 503.204 438.84C504.324 438.84 505.364 438.933 506.324 439.12C507.311 439.307 508.071 439.547 508.604 439.84L507.924 442.08C507.391 441.813 506.791 441.6 506.124 441.44C505.458 441.28 504.564 441.2 503.444 441.2C501.151 441.2 499.404 441.947 498.204 443.44C497.031 444.907 496.444 447 496.444 449.72C496.444 450.947 496.578 452.08 496.844 453.12C497.111 454.133 497.538 455.013 498.124 455.76C498.738 456.48 499.511 457.053 500.444 457.48C501.404 457.88 502.564 458.08 503.924 458.08C505.044 458.08 505.978 457.96 506.724 457.72C507.498 457.453 508.058 457.227 508.404 457.04L508.964 459.28C508.484 459.547 507.724 459.8 506.684 460.04C505.671 460.307 504.604 460.44 503.484 460.44ZM513.323 460V429.44L515.923 428.96V439.92C516.776 439.6 517.643 439.36 518.523 439.2C519.403 439.013 520.283 438.92 521.163 438.92C522.763 438.92 524.096 439.147 525.163 439.6C526.229 440.053 527.083 440.707 527.723 441.56C528.363 442.387 528.803 443.387 529.043 444.56C529.309 445.733 529.443 447.027 529.443 448.44V460H526.843V449.28C526.843 447.813 526.736 446.573 526.523 445.56C526.336 444.547 526.003 443.72 525.523 443.08C525.069 442.44 524.456 441.987 523.683 441.72C522.909 441.427 521.936 441.28 520.763 441.28C520.309 441.28 519.816 441.32 519.283 441.4C518.776 441.48 518.296 441.573 517.843 441.68C517.389 441.76 516.976 441.853 516.603 441.96C516.256 442.067 516.029 442.147 515.923 442.2V460H513.323ZM553.758 460.44C552.158 460.44 550.744 460.187 549.518 459.68C548.291 459.173 547.264 458.453 546.438 457.52C545.638 456.56 545.024 455.427 544.598 454.12C544.171 452.787 543.958 451.32 543.958 449.72C543.958 448.093 544.171 446.613 544.598 445.28C545.051 443.947 545.691 442.8 546.518 441.84C547.344 440.88 548.344 440.147 549.518 439.64C550.691 439.107 552.011 438.84 553.478 438.84C554.598 438.84 555.638 438.933 556.598 439.12C557.584 439.307 558.344 439.547 558.878 439.84L558.198 442.08C557.664 441.813 557.064 441.6 556.398 441.44C555.731 441.28 554.838 441.2 553.718 441.2C551.424 441.2 549.678 441.947 548.478 443.44C547.304 444.907 546.718 447 546.718 449.72C546.718 450.947 546.851 452.08 547.118 453.12C547.384 454.133 547.811 455.013 548.398 455.76C549.011 456.48 549.784 457.053 550.718 457.48C551.678 457.88 552.838 458.08 554.198 458.08C555.318 458.08 556.251 457.96 556.998 457.72C557.771 457.453 558.331 457.227 558.678 457.04L559.238 459.28C558.758 459.547 557.998 459.8 556.958 460.04C555.944 460.307 554.878 460.44 553.758 460.44ZM568.836 460.36C567.956 460.333 567.183 460.213 566.516 460C565.876 459.813 565.33 459.52 564.876 459.12C564.45 458.693 564.116 458.16 563.876 457.52C563.663 456.853 563.556 456.027 563.556 455.04V429.44L566.156 428.96V454.96C566.156 455.6 566.21 456.12 566.316 456.52C566.45 456.893 566.636 457.2 566.876 457.44C567.116 457.653 567.423 457.813 567.796 457.92C568.196 458.027 568.663 458.12 569.196 458.2L568.836 460.36ZM576.392 460H573.792V439.32H576.392V460ZM576.992 433.08C576.992 433.693 576.805 434.187 576.432 434.56C576.058 434.907 575.605 435.08 575.072 435.08C574.538 435.08 574.085 434.907 573.712 434.56C573.338 434.187 573.152 433.693 573.152 433.08C573.152 432.467 573.338 431.987 573.712 431.64C574.085 431.267 574.538 431.08 575.072 431.08C575.605 431.08 576.058 431.267 576.432 431.64C576.805 431.987 576.992 432.467 576.992 433.08ZM582.044 449.64C582.044 447.827 582.297 446.253 582.804 444.92C583.337 443.56 584.017 442.427 584.844 441.52C585.697 440.613 586.657 439.947 587.724 439.52C588.817 439.067 589.937 438.84 591.084 438.84C593.617 438.84 595.63 439.667 597.124 441.32C598.644 442.973 599.404 445.52 599.404 448.96C599.404 449.173 599.39 449.387 599.364 449.6C599.364 449.813 599.35 450.013 599.324 450.2H584.804C584.884 452.733 585.51 454.68 586.684 456.04C587.857 457.4 589.724 458.08 592.284 458.08C593.697 458.08 594.817 457.947 595.644 457.68C596.47 457.413 597.07 457.187 597.444 457L597.924 459.24C597.55 459.453 596.844 459.707 595.804 460C594.79 460.293 593.59 460.44 592.204 460.44C590.39 460.44 588.844 460.173 587.564 459.64C586.284 459.107 585.23 458.36 584.404 457.4C583.577 456.44 582.977 455.307 582.604 454C582.23 452.667 582.044 451.213 582.044 449.64ZM596.724 448C596.67 445.84 596.164 444.16 595.204 442.96C594.244 441.76 592.884 441.16 591.124 441.16C590.19 441.16 589.35 441.347 588.604 441.72C587.884 442.093 587.244 442.6 586.684 443.24C586.15 443.853 585.724 444.573 585.404 445.4C585.11 446.227 584.937 447.093 584.884 448H596.724ZM605.198 440.04C605.971 439.827 607.011 439.587 608.318 439.32C609.624 439.053 611.224 438.92 613.118 438.92C614.691 438.92 615.998 439.147 617.038 439.6C618.104 440.053 618.944 440.707 619.558 441.56C620.198 442.387 620.651 443.387 620.918 444.56C621.184 445.733 621.318 447.027 621.318 448.44V460H618.718V449.28C618.718 447.813 618.611 446.573 618.398 445.56C618.211 444.547 617.878 443.72 617.398 443.08C616.944 442.44 616.331 441.987 615.558 441.72C614.811 441.427 613.864 441.28 612.718 441.28C611.491 441.28 610.424 441.347 609.518 441.48C608.638 441.613 608.064 441.733 607.798 441.84V460H605.198V440.04ZM630.411 439.32H638.651V441.52H630.411V452.52C630.411 453.693 630.505 454.653 630.691 455.4C630.905 456.12 631.198 456.68 631.571 457.08C631.945 457.48 632.398 457.747 632.931 457.88C633.465 458.013 634.051 458.08 634.691 458.08C635.785 458.08 636.665 457.96 637.331 457.72C637.998 457.453 638.518 457.213 638.891 457L639.531 459.16C639.158 459.4 638.505 459.68 637.571 460C636.638 460.293 635.625 460.44 634.531 460.44C633.251 460.44 632.171 460.28 631.291 459.96C630.438 459.613 629.745 459.107 629.211 458.44C628.705 457.747 628.345 456.893 628.131 455.88C627.918 454.867 627.811 453.667 627.811 452.28V433.24L630.411 432.76V439.32ZM655.142 440.56C655.595 440.213 656.315 439.853 657.302 439.48C658.315 439.08 659.502 438.88 660.862 438.88C662.355 438.88 663.675 439.147 664.822 439.68C665.995 440.213 666.982 440.96 667.782 441.92C668.582 442.88 669.182 444.027 669.582 445.36C670.008 446.667 670.222 448.107 670.222 449.68C670.222 451.36 669.968 452.867 669.462 454.2C668.982 455.533 668.288 456.667 667.382 457.6C666.502 458.533 665.435 459.253 664.182 459.76C662.955 460.24 661.582 460.48 660.062 460.48C658.222 460.48 656.702 460.36 655.502 460.12C654.302 459.88 653.315 459.627 652.542 459.36V429.44L655.142 428.96V440.56ZM655.142 457.56C655.542 457.693 656.128 457.827 656.902 457.96C657.702 458.067 658.742 458.12 660.022 458.12C662.262 458.12 664.062 457.4 665.422 455.96C666.782 454.493 667.462 452.4 667.462 449.68C667.462 448.533 667.342 447.453 667.102 446.44C666.862 445.4 666.475 444.507 665.942 443.76C665.408 442.987 664.702 442.373 663.822 441.92C662.968 441.467 661.902 441.24 660.622 441.24C660.008 441.24 659.422 441.307 658.862 441.44C658.302 441.547 657.782 441.693 657.302 441.88C656.822 442.067 656.395 442.267 656.022 442.48C655.675 442.693 655.382 442.893 655.142 443.08V457.56ZM691.742 459.28C690.969 459.493 689.929 459.733 688.622 460C687.315 460.267 685.715 460.4 683.822 460.4C682.275 460.4 680.982 460.173 679.942 459.72C678.902 459.267 678.062 458.627 677.422 457.8C676.782 456.973 676.315 455.973 676.022 454.8C675.755 453.627 675.622 452.333 675.622 450.92V439.32H678.222V450.08C678.222 451.547 678.329 452.787 678.542 453.8C678.755 454.813 679.102 455.64 679.582 456.28C680.062 456.893 680.675 457.347 681.422 457.64C682.195 457.907 683.129 458.04 684.222 458.04C685.449 458.04 686.515 457.973 687.422 457.84C688.329 457.707 688.902 457.587 689.142 457.48V439.32H691.742V459.28ZM701.235 460H698.635V439.32H701.235V460ZM701.835 433.08C701.835 433.693 701.649 434.187 701.275 434.56C700.902 434.907 700.449 435.08 699.915 435.08C699.382 435.08 698.929 434.907 698.555 434.56C698.182 434.187 697.995 433.693 697.995 433.08C697.995 432.467 698.182 431.987 698.555 431.64C698.929 431.267 699.382 431.08 699.915 431.08C700.449 431.08 700.902 431.267 701.275 431.64C701.649 431.987 701.835 432.467 701.835 433.08ZM713.368 460.36C712.488 460.333 711.714 460.213 711.048 460C710.408 459.813 709.861 459.52 709.408 459.12C708.981 458.693 708.648 458.16 708.408 457.52C708.194 456.853 708.088 456.027 708.088 455.04V429.44L710.688 428.96V454.96C710.688 455.6 710.741 456.12 710.848 456.52C710.981 456.893 711.168 457.2 711.408 457.44C711.648 457.653 711.954 457.813 712.328 457.92C712.728 458.027 713.194 458.12 713.728 458.2L713.368 460.36ZM734.763 459.36C733.989 459.627 733.003 459.88 731.803 460.12C730.603 460.36 729.083 460.48 727.243 460.48C725.723 460.48 724.336 460.24 723.083 459.76C721.856 459.253 720.789 458.533 719.883 457.6C719.003 456.667 718.309 455.533 717.803 454.2C717.323 452.867 717.083 451.36 717.083 449.68C717.083 448.107 717.283 446.667 717.683 445.36C718.109 444.027 718.723 442.88 719.523 441.92C720.323 440.96 721.296 440.213 722.443 439.68C723.616 439.147 724.949 438.88 726.443 438.88C727.803 438.88 728.976 439.08 729.963 439.48C730.976 439.853 731.709 440.213 732.163 440.56V429.44L734.763 428.96V459.36ZM732.163 443.08C731.923 442.893 731.616 442.693 731.243 442.48C730.896 442.267 730.483 442.067 730.003 441.88C729.523 441.693 729.003 441.547 728.443 441.44C727.883 441.307 727.296 441.24 726.683 441.24C725.403 441.24 724.323 441.467 723.443 441.92C722.589 442.373 721.896 442.987 721.363 443.76C720.829 444.507 720.443 445.4 720.203 446.44C719.963 447.453 719.843 448.533 719.843 449.68C719.843 452.4 720.523 454.493 721.883 455.96C723.243 457.4 725.043 458.12 727.283 458.12C728.563 458.12 729.589 458.067 730.363 457.96C731.163 457.827 731.763 457.693 732.163 457.56V443.08ZM740.403 449.64C740.403 447.827 740.656 446.253 741.163 444.92C741.696 443.56 742.376 442.427 743.203 441.52C744.056 440.613 745.016 439.947 746.083 439.52C747.176 439.067 748.296 438.84 749.443 438.84C751.976 438.84 753.99 439.667 755.483 441.32C757.003 442.973 757.763 445.52 757.763 448.96C757.763 449.173 757.75 449.387 757.723 449.6C757.723 449.813 757.71 450.013 757.683 450.2H743.163C743.243 452.733 743.87 454.68 745.043 456.04C746.216 457.4 748.083 458.08 750.643 458.08C752.056 458.08 753.176 457.947 754.003 457.68C754.83 457.413 755.43 457.187 755.803 457L756.283 459.24C755.91 459.453 755.203 459.707 754.163 460C753.15 460.293 751.95 460.44 750.563 460.44C748.75 460.44 747.203 460.173 745.923 459.64C744.643 459.107 743.59 458.36 742.763 457.4C741.936 456.44 741.336 455.307 740.963 454C740.59 452.667 740.403 451.213 740.403 449.64ZM755.083 448C755.03 445.84 754.523 444.16 753.563 442.96C752.603 441.76 751.243 441.16 749.483 441.16C748.55 441.16 747.71 441.347 746.963 441.72C746.243 442.093 745.603 442.6 745.043 443.24C744.51 443.853 744.083 444.573 743.763 445.4C743.47 446.227 743.296 447.093 743.243 448H755.083ZM770.597 438.92C771.451 438.92 772.251 438.987 772.997 439.12C773.771 439.253 774.304 439.387 774.597 439.52L774.077 441.76C773.864 441.653 773.424 441.547 772.757 441.44C772.117 441.307 771.264 441.24 770.197 441.24C769.077 441.24 768.171 441.32 767.477 441.48C766.811 441.64 766.371 441.773 766.157 441.88V460H763.557V440.28C764.224 439.987 765.144 439.693 766.317 439.4C767.491 439.08 768.917 438.92 770.597 438.92ZM795.22 428.96C796.34 428.96 797.246 429.053 797.94 429.24C798.66 429.4 799.126 429.547 799.34 429.68L798.82 431.92C798.526 431.787 798.086 431.653 797.5 431.52C796.94 431.36 796.22 431.28 795.34 431.28C793.5 431.28 792.18 431.747 791.38 432.68C790.606 433.613 790.22 435.107 790.22 437.16V439.32H798.54V441.52H790.22V460H787.62V437.08C787.62 434.387 788.233 432.36 789.46 431C790.713 429.64 792.633 428.96 795.22 428.96ZM820.299 449.68C820.299 451.307 820.059 452.787 819.579 454.12C819.125 455.453 818.472 456.587 817.619 457.52C816.792 458.453 815.805 459.187 814.659 459.72C813.512 460.227 812.245 460.48 810.859 460.48C809.472 460.48 808.205 460.227 807.059 459.72C805.912 459.187 804.912 458.453 804.059 457.52C803.232 456.587 802.579 455.453 802.099 454.12C801.645 452.787 801.419 451.307 801.419 449.68C801.419 448.053 801.645 446.573 802.099 445.24C802.579 443.907 803.232 442.773 804.059 441.84C804.912 440.88 805.912 440.147 807.059 439.64C808.205 439.107 809.472 438.84 810.859 438.84C812.245 438.84 813.512 439.107 814.659 439.64C815.805 440.147 816.792 440.88 817.619 441.84C818.472 442.773 819.125 443.907 819.579 445.24C820.059 446.573 820.299 448.053 820.299 449.68ZM817.539 449.68C817.539 447.093 816.939 445.04 815.739 443.52C814.539 441.973 812.912 441.2 810.859 441.2C808.805 441.2 807.179 441.973 805.979 443.52C804.779 445.04 804.179 447.093 804.179 449.68C804.179 452.267 804.779 454.32 805.979 455.84C807.179 457.36 808.805 458.12 810.859 458.12C812.912 458.12 814.539 457.36 815.739 455.84C816.939 454.32 817.539 452.267 817.539 449.68ZM832.98 438.92C833.833 438.92 834.633 438.987 835.38 439.12C836.153 439.253 836.687 439.387 836.98 439.52L836.46 441.76C836.247 441.653 835.807 441.547 835.14 441.44C834.5 441.307 833.647 441.24 832.58 441.24C831.46 441.24 830.553 441.32 829.86 441.48C829.193 441.64 828.753 441.773 828.54 441.88V460H825.94V440.28C826.607 439.987 827.527 439.693 828.7 439.4C829.873 439.08 831.3 438.92 832.98 438.92ZM852.442 439.32H860.683V441.52H852.442V452.52C852.442 453.693 852.536 454.653 852.723 455.4C852.936 456.12 853.229 456.68 853.603 457.08C853.976 457.48 854.429 457.747 854.963 457.88C855.496 458.013 856.083 458.08 856.723 458.08C857.816 458.08 858.696 457.96 859.363 457.72C860.029 457.453 860.549 457.213 860.923 457L861.563 459.16C861.189 459.4 860.536 459.68 859.603 460C858.669 460.293 857.656 460.44 856.562 460.44C855.283 460.44 854.203 460.28 853.323 459.96C852.469 459.613 851.776 459.107 851.243 458.44C850.736 457.747 850.376 456.893 850.163 455.88C849.949 454.867 849.843 453.667 849.843 452.28V433.24L852.442 432.76V439.32ZM871.111 460.44C870.231 458.813 869.378 457.12 868.551 455.36C867.751 453.6 866.991 451.827 866.271 450.04C865.578 448.227 864.938 446.427 864.351 444.64C863.765 442.827 863.258 441.053 862.831 439.32H865.591C865.885 440.6 866.258 441.987 866.711 443.48C867.165 444.947 867.671 446.467 868.231 448.04C868.818 449.613 869.458 451.227 870.151 452.88C870.845 454.533 871.591 456.16 872.391 457.76C872.978 456.107 873.498 454.547 873.951 453.08C874.405 451.613 874.818 450.16 875.191 448.72C875.591 447.253 875.965 445.76 876.311 444.24C876.685 442.72 877.071 441.08 877.471 439.32H880.071C879.218 443.187 878.245 446.947 877.151 450.6C876.058 454.253 874.871 457.6 873.591 460.64C873.085 461.84 872.565 462.867 872.031 463.72C871.498 464.6 870.898 465.32 870.231 465.88C869.591 466.44 868.831 466.853 867.951 467.12C867.098 467.387 866.085 467.52 864.911 467.52C864.245 467.52 863.631 467.44 863.071 467.28C862.538 467.12 862.205 467 862.071 466.92L862.591 464.76C862.698 464.84 862.991 464.947 863.471 465.08C863.978 465.24 864.498 465.32 865.031 465.32C865.778 465.32 866.445 465.24 867.031 465.08C867.645 464.92 868.191 464.64 868.671 464.24C869.151 463.867 869.578 463.373 869.951 462.76C870.351 462.147 870.738 461.373 871.111 460.44ZM887.017 456.28C887.257 456.467 887.55 456.667 887.897 456.88C888.27 457.093 888.697 457.293 889.177 457.48C889.657 457.667 890.177 457.827 890.737 457.96C891.297 458.067 891.883 458.12 892.497 458.12C893.777 458.12 894.843 457.907 895.697 457.48C896.577 457.027 897.283 456.427 897.817 455.68C898.35 454.907 898.737 454.013 898.977 453C899.217 451.96 899.337 450.867 899.337 449.72C899.337 447 898.657 444.92 897.297 443.48C895.937 442.013 894.137 441.28 891.897 441.28C890.617 441.28 889.577 441.347 888.777 441.48C888.003 441.587 887.417 441.707 887.017 441.84V456.28ZM887.017 467.4H884.417V440.04C885.19 439.773 886.177 439.52 887.377 439.28C888.577 439.04 890.097 438.92 891.937 438.92C893.457 438.92 894.83 439.173 896.057 439.68C897.31 440.16 898.377 440.867 899.257 441.8C900.163 442.733 900.857 443.867 901.337 445.2C901.843 446.533 902.097 448.04 902.097 449.72C902.097 451.293 901.883 452.747 901.457 454.08C901.057 455.387 900.457 456.52 899.657 457.48C898.857 458.413 897.87 459.147 896.697 459.68C895.55 460.213 894.23 460.48 892.737 460.48C891.377 460.48 890.19 460.293 889.177 459.92C888.19 459.52 887.47 459.147 887.017 458.8V467.4ZM906.497 449.64C906.497 447.827 906.75 446.253 907.257 444.92C907.79 443.56 908.47 442.427 909.297 441.52C910.15 440.613 911.11 439.947 912.177 439.52C913.27 439.067 914.39 438.84 915.537 438.84C918.07 438.84 920.084 439.667 921.577 441.32C923.097 442.973 923.857 445.52 923.857 448.96C923.857 449.173 923.844 449.387 923.817 449.6C923.817 449.813 923.804 450.013 923.777 450.2H909.257C909.337 452.733 909.964 454.68 911.137 456.04C912.31 457.4 914.177 458.08 916.737 458.08C918.15 458.08 919.27 457.947 920.097 457.68C920.924 457.413 921.524 457.187 921.897 457L922.377 459.24C922.004 459.453 921.297 459.707 920.257 460C919.244 460.293 918.044 460.44 916.657 460.44C914.844 460.44 913.297 460.173 912.017 459.64C910.737 459.107 909.684 458.36 908.857 457.4C908.03 456.44 907.43 455.307 907.057 454C906.684 452.667 906.497 451.213 906.497 449.64ZM921.177 448C921.124 445.84 920.617 444.16 919.657 442.96C918.697 441.76 917.337 441.16 915.577 441.16C914.644 441.16 913.804 441.347 913.057 441.72C912.337 442.093 911.697 442.6 911.137 443.24C910.604 443.853 910.177 444.573 909.857 445.4C909.564 446.227 909.39 447.093 909.337 448H921.177ZM933.891 458.16C935.384 458.16 936.611 457.92 937.571 457.44C938.558 456.933 939.051 456.093 939.051 454.92C939.051 454.36 938.958 453.88 938.771 453.48C938.611 453.08 938.331 452.72 937.931 452.4C937.531 452.08 936.998 451.773 936.331 451.48C935.691 451.187 934.891 450.84 933.931 450.44C933.158 450.12 932.424 449.8 931.731 449.48C931.038 449.133 930.424 448.747 929.891 448.32C929.358 447.867 928.931 447.333 928.611 446.72C928.291 446.107 928.131 445.36 928.131 444.48C928.131 442.8 928.758 441.44 930.011 440.4C931.291 439.36 933.038 438.84 935.251 438.84C936.664 438.84 937.824 438.96 938.731 439.2C939.664 439.44 940.318 439.653 940.691 439.84L940.091 442.16C939.771 442 939.224 441.787 938.451 441.52C937.704 441.253 936.598 441.12 935.131 441.12C934.544 441.12 933.984 441.187 933.451 441.32C932.944 441.427 932.491 441.613 932.091 441.88C931.691 442.12 931.371 442.44 931.131 442.84C930.891 443.213 930.771 443.68 930.771 444.24C930.771 444.8 930.878 445.28 931.091 445.68C931.304 446.08 931.611 446.44 932.011 446.76C932.438 447.053 932.944 447.333 933.531 447.6C934.144 447.867 934.838 448.16 935.611 448.48C936.411 448.8 937.171 449.133 937.891 449.48C938.638 449.8 939.291 450.2 939.851 450.68C940.411 451.133 940.864 451.693 941.211 452.36C941.558 453 941.731 453.813 941.731 454.8C941.731 456.667 941.024 458.08 939.611 459.04C938.224 460 936.318 460.48 933.891 460.48C932.078 460.48 930.691 460.32 929.731 460C928.771 459.707 928.131 459.48 927.811 459.32L928.491 456.96C928.571 457.013 928.744 457.107 929.011 457.24C929.278 457.347 929.638 457.48 930.091 457.64C930.544 457.773 931.078 457.893 931.691 458C932.331 458.107 933.064 458.16 933.891 458.16ZM955.32 460.44C953.72 460.44 952.307 460.187 951.08 459.68C949.854 459.173 948.827 458.453 948 457.52C947.2 456.56 946.587 455.427 946.16 454.12C945.734 452.787 945.52 451.32 945.52 449.72C945.52 448.093 945.734 446.613 946.16 445.28C946.614 443.947 947.254 442.8 948.08 441.84C948.907 440.88 949.907 440.147 951.08 439.64C952.254 439.107 953.574 438.84 955.04 438.84C956.16 438.84 957.2 438.933 958.16 439.12C959.147 439.307 959.907 439.547 960.44 439.84L959.76 442.08C959.227 441.813 958.627 441.6 957.96 441.44C957.294 441.28 956.4 441.2 955.28 441.2C952.987 441.2 951.24 441.947 950.04 443.44C948.867 444.907 948.28 447 948.28 449.72C948.28 450.947 948.414 452.08 948.68 453.12C948.947 454.133 949.374 455.013 949.96 455.76C950.574 456.48 951.347 457.053 952.28 457.48C953.24 457.88 954.4 458.08 955.76 458.08C956.88 458.08 957.814 457.96 958.56 457.72C959.334 457.453 959.894 457.227 960.24 457.04L960.8 459.28C960.32 459.547 959.56 459.8 958.52 460.04C957.507 460.307 956.44 460.44 955.32 460.44ZM972.199 438.92C973.052 438.92 973.852 438.987 974.599 439.12C975.372 439.253 975.905 439.387 976.199 439.52L975.679 441.76C975.465 441.653 975.025 441.547 974.359 441.44C973.719 441.307 972.865 441.24 971.799 441.24C970.679 441.24 969.772 441.32 969.079 441.48C968.412 441.64 967.972 441.773 967.759 441.88V460H965.159V440.28C965.825 439.987 966.745 439.693 967.919 439.4C969.092 439.08 970.519 438.92 972.199 438.92ZM982.72 460H980.12V439.32H982.72V460ZM983.32 433.08C983.32 433.693 983.133 434.187 982.76 434.56C982.386 434.907 981.933 435.08 981.4 435.08C980.866 435.08 980.413 434.907 980.04 434.56C979.666 434.187 979.48 433.693 979.48 433.08C979.48 432.467 979.666 431.987 980.04 431.64C980.413 431.267 980.866 431.08 981.4 431.08C981.933 431.08 982.386 431.267 982.76 431.64C983.133 431.987 983.32 432.467 983.32 433.08ZM992.212 456.28C992.452 456.467 992.745 456.667 993.092 456.88C993.465 457.093 993.892 457.293 994.372 457.48C994.852 457.667 995.372 457.827 995.932 457.96C996.492 458.067 997.079 458.12 997.692 458.12C998.972 458.12 1000.04 457.907 1000.89 457.48C1001.77 457.027 1002.48 456.427 1003.01 455.68C1003.55 454.907 1003.93 454.013 1004.17 453C1004.41 451.96 1004.53 450.867 1004.53 449.72C1004.53 447 1003.85 444.92 1002.49 443.48C1001.13 442.013 999.332 441.28 997.092 441.28C995.812 441.28 994.772 441.347 993.972 441.48C993.199 441.587 992.612 441.707 992.212 441.84V456.28ZM992.212 467.4H989.612V440.04C990.385 439.773 991.372 439.52 992.572 439.28C993.772 439.04 995.292 438.92 997.132 438.92C998.652 438.92 1000.03 439.173 1001.25 439.68C1002.51 440.16 1003.57 440.867 1004.45 441.8C1005.36 442.733 1006.05 443.867 1006.53 445.2C1007.04 446.533 1007.29 448.04 1007.29 449.72C1007.29 451.293 1007.08 452.747 1006.65 454.08C1006.25 455.387 1005.65 456.52 1004.85 457.48C1004.05 458.413 1003.07 459.147 1001.89 459.68C1000.75 460.213 999.425 460.48 997.932 460.48C996.572 460.48 995.385 460.293 994.372 459.92C993.385 459.52 992.665 459.147 992.212 458.8V467.4ZM1015.37 439.32H1023.61V441.52H1015.37V452.52C1015.37 453.693 1015.47 454.653 1015.65 455.4C1015.87 456.12 1016.16 456.68 1016.53 457.08C1016.91 457.48 1017.36 457.747 1017.89 457.88C1018.43 458.013 1019.01 458.08 1019.65 458.08C1020.75 458.08 1021.63 457.96 1022.29 457.72C1022.96 457.453 1023.48 457.213 1023.85 457L1024.49 459.16C1024.12 459.4 1023.47 459.68 1022.53 460C1021.6 460.293 1020.59 460.44 1019.49 460.44C1018.21 460.44 1017.13 460.28 1016.25 459.96C1015.4 459.613 1014.71 459.107 1014.17 458.44C1013.67 457.747 1013.31 456.893 1013.09 455.88C1012.88 454.867 1012.77 453.667 1012.77 452.28V433.24L1015.37 432.76V439.32Z" fill="white" fill-opacity="0.87"/>
</svg>
