<svg width="1280" height="640" viewBox="0 0 1280 640" fill="none" xmlns="http://www.w3.org/2000/svg">
<rect width="1280" height="640" fill="#18181B"/>
<path d="M376.344 334.416C371.117 335.76 364.323 337.104 355.96 338.448C347.597 339.941 338.413 340.688 328.408 340.688C319 340.688 311.085 339.344 304.664 336.656C298.392 333.968 293.315 330.235 289.432 325.456C285.699 320.677 283.011 315.003 281.368 308.432C279.725 301.712 278.904 294.395 278.904 286.48V220.848H306.008V282.224C306.008 294.768 307.8 303.728 311.384 309.104C315.117 314.48 321.539 317.168 330.648 317.168C333.933 317.168 337.368 317.019 340.952 316.72C344.685 316.421 347.448 316.048 349.24 315.6V220.848H376.344V334.416ZM479.61 279.984C479.61 267.888 476.847 258.48 471.322 251.76C465.946 245.04 457.21 241.68 445.114 241.68C442.575 241.68 439.887 241.829 437.05 242.128C434.362 242.277 431.674 242.725 428.986 243.472V310.448C431.375 312.091 434.511 313.659 438.394 315.152C442.426 316.496 446.682 317.168 451.162 317.168C461.018 317.168 468.186 313.808 472.666 307.088C477.295 300.368 479.61 291.333 479.61 279.984ZM507.386 279.536C507.386 288.496 506.191 296.709 503.802 304.176C501.562 311.643 498.276 318.064 493.946 323.44C489.615 328.816 484.164 332.997 477.594 335.984C471.172 338.971 463.855 340.464 455.642 340.464C450.116 340.464 445.039 339.792 440.41 338.448C435.78 337.104 431.972 335.611 428.986 333.968V379.44H401.882V224.656C407.407 223.163 414.202 221.744 422.266 220.4C430.33 219.056 438.842 218.384 447.802 218.384C457.06 218.384 465.348 219.803 472.666 222.64C479.983 225.477 486.18 229.584 491.258 234.96C496.484 240.187 500.442 246.608 503.13 254.224C505.967 261.691 507.386 270.128 507.386 279.536Z" fill="#F3B549"/>
<path d="M574.071 164.176C580.343 164.176 585.869 164.773 590.647 165.968C595.426 167.013 599.01 167.984 601.399 168.88L596.247 191.28C593.709 190.085 590.722 189.115 587.287 188.368C584.002 187.621 580.418 187.248 576.535 187.248C572.205 187.248 568.546 187.92 565.559 189.264C562.573 190.459 560.183 192.176 558.391 194.416C556.599 196.656 555.33 199.419 554.583 202.704C553.837 205.84 553.463 209.275 553.463 213.008V220.848H596.023V243.472H553.463V338H526.359V212.56C526.359 197.477 530.317 185.68 538.231 177.168C546.146 168.507 558.093 164.176 574.071 164.176ZM598.403 279.984C598.403 269.68 599.897 260.645 602.883 252.88C606.019 245.115 610.126 238.693 615.203 233.616C620.281 228.389 626.105 224.507 632.675 221.968C639.246 219.28 645.966 217.936 652.835 217.936C668.963 217.936 681.507 222.939 690.467 232.944C699.577 242.949 704.131 257.883 704.131 277.744C704.131 279.237 704.057 280.955 703.907 282.896C703.907 284.688 703.833 286.331 703.683 287.824H626.403C627.15 297.232 630.435 304.549 636.259 309.776C642.233 314.853 650.819 317.392 662.019 317.392C668.59 317.392 674.563 316.795 679.939 315.6C685.465 314.405 689.795 313.136 692.931 311.792L696.515 333.968C695.022 334.715 692.931 335.536 690.243 336.432C687.705 337.179 684.718 337.851 681.283 338.448C677.998 339.195 674.414 339.792 670.531 340.24C666.649 340.688 662.691 340.912 658.659 340.912C648.355 340.912 639.395 339.419 631.779 336.432C624.163 333.296 617.891 329.04 612.963 323.664C608.035 318.139 604.377 311.717 601.987 304.4C599.598 296.933 598.403 288.795 598.403 279.984ZM677.027 267.888C677.027 264.155 676.505 260.645 675.459 257.36C674.414 253.925 672.846 251.013 670.755 248.624C668.814 246.085 666.35 244.144 663.363 242.8C660.526 241.307 657.091 240.56 653.059 240.56C648.878 240.56 645.219 241.381 642.083 243.024C638.947 244.517 636.259 246.533 634.019 249.072C631.929 251.611 630.286 254.523 629.091 257.808C627.897 261.093 627.075 264.453 626.627 267.888H677.027ZM722.564 189.936L749.668 185.456V220.848H791.332V243.472H749.668V291.184C749.668 300.592 751.161 307.312 754.148 311.344C757.135 315.376 762.212 317.392 769.38 317.392C774.308 317.392 778.639 316.869 782.372 315.824C786.255 314.779 789.316 313.808 791.556 312.912L796.036 334.416C792.9 335.76 788.793 337.104 783.716 338.448C778.639 339.941 772.665 340.688 765.796 340.688C757.433 340.688 750.415 339.568 744.74 337.328C739.215 335.088 734.809 331.877 731.524 327.696C728.239 323.365 725.924 318.213 724.58 312.24C723.236 306.117 722.564 299.173 722.564 291.408V189.936ZM799.671 279.536C799.671 270.875 801.015 262.811 803.703 255.344C806.391 247.728 810.199 241.157 815.127 235.632C820.204 230.107 826.327 225.776 833.495 222.64C840.663 219.504 848.727 217.936 857.687 217.936C868.737 217.936 879.191 219.952 889.047 223.984L883.223 246.16C880.087 244.816 876.503 243.696 872.471 242.8C868.588 241.904 864.407 241.456 859.927 241.456C849.324 241.456 841.26 244.816 835.735 251.536C830.209 258.107 827.447 267.44 827.447 279.536C827.447 291.184 830.06 300.443 835.287 307.312C840.513 314.032 849.324 317.392 861.719 317.392C866.348 317.392 870.903 316.944 875.383 316.048C879.863 315.152 883.745 314.032 887.031 312.688L890.839 335.088C887.852 336.581 883.297 337.925 877.175 339.12C871.201 340.315 865.004 340.912 858.583 340.912C848.577 340.912 839.841 339.419 832.375 336.432C825.057 333.296 818.935 329.04 814.007 323.664C809.228 318.139 805.644 311.643 803.255 304.176C800.865 296.56 799.671 288.347 799.671 279.536ZM902.863 338V168.656L929.967 164.176V222.192C932.954 221.147 936.388 220.251 940.271 219.504C944.303 218.757 948.26 218.384 952.143 218.384C961.551 218.384 969.316 219.728 975.439 222.416C981.711 224.955 986.714 228.613 990.447 233.392C994.18 238.021 996.794 243.621 998.287 250.192C999.93 256.763 1000.75 264.08 1000.75 272.144V338H973.647V276.4C973.647 270.128 973.199 264.827 972.303 260.496C971.556 256.016 970.212 252.432 968.271 249.744C966.479 246.907 964.015 244.891 960.879 243.696C957.743 242.352 953.86 241.68 949.231 241.68C945.647 241.68 941.988 242.053 938.255 242.8C934.522 243.547 931.759 244.219 929.967 244.816V338H902.863Z" fill="#FCFCFC"/>
<path d="M322.619 455C322.176 453.81 321.756 452.667 321.359 451.57C320.963 450.473 320.578 449.4 320.204 448.35H308.409C308.013 449.4 307.616 450.473 307.219 451.57C306.823 452.667 306.414 453.81 305.994 455H303.509C304.443 452.48 305.318 450.135 306.134 447.965C306.951 445.772 307.744 443.707 308.514 441.77C309.308 439.81 310.089 437.932 310.859 436.135C311.629 434.338 312.446 432.542 313.309 430.745H315.409C316.273 432.542 317.089 434.338 317.859 436.135C318.629 437.932 319.399 439.81 320.169 441.77C320.963 443.707 321.768 445.772 322.584 447.965C323.401 450.135 324.288 452.48 325.244 455H322.619ZM314.289 433.475C313.403 435.482 312.539 437.523 311.699 439.6C310.883 441.677 310.031 443.917 309.144 446.32H319.469C318.583 443.917 317.719 441.677 316.879 439.6C316.039 437.523 315.176 435.482 314.289 433.475ZM342.976 454.44C342.299 454.673 341.436 454.895 340.386 455.105C339.336 455.315 338.006 455.42 336.396 455.42C335.066 455.42 333.853 455.21 332.756 454.79C331.683 454.347 330.749 453.717 329.956 452.9C329.186 452.083 328.579 451.092 328.136 449.925C327.716 448.758 327.506 447.44 327.506 445.97C327.506 444.593 327.681 443.333 328.031 442.19C328.404 441.023 328.941 440.02 329.641 439.18C330.341 438.34 331.193 437.687 332.196 437.22C333.223 436.753 334.389 436.52 335.696 436.52C336.886 436.52 337.913 436.695 338.776 437.045C339.663 437.372 340.304 437.687 340.701 437.99V428.26L342.976 427.84V454.44ZM340.701 440.195C340.491 440.032 340.223 439.857 339.896 439.67C339.593 439.483 339.231 439.308 338.811 439.145C338.391 438.982 337.936 438.853 337.446 438.76C336.956 438.643 336.443 438.585 335.906 438.585C334.786 438.585 333.841 438.783 333.071 439.18C332.324 439.577 331.718 440.113 331.251 440.79C330.784 441.443 330.446 442.225 330.236 443.135C330.026 444.022 329.921 444.967 329.921 445.97C329.921 448.35 330.516 450.182 331.706 451.465C332.896 452.725 334.471 453.355 336.431 453.355C337.551 453.355 338.449 453.308 339.126 453.215C339.826 453.098 340.351 452.982 340.701 452.865V440.195ZM354.456 452.55C354.946 451.547 355.448 450.403 355.961 449.12C356.475 447.813 356.965 446.472 357.431 445.095C357.921 443.695 358.365 442.295 358.761 440.895C359.181 439.472 359.531 438.142 359.811 436.905H362.086C361.666 438.562 361.2 440.195 360.686 441.805C360.173 443.415 359.625 444.99 359.041 446.53C358.481 448.07 357.886 449.552 357.256 450.975C356.65 452.398 356.055 453.74 355.471 455H353.301C352.695 453.74 352.088 452.398 351.481 450.975C350.875 449.552 350.28 448.07 349.696 446.53C349.136 444.99 348.6 443.415 348.086 441.805C347.573 440.195 347.106 438.562 346.686 436.905H349.101C349.381 438.142 349.72 439.472 350.116 440.895C350.536 442.295 350.98 443.695 351.446 445.095C351.936 446.472 352.438 447.813 352.951 449.12C353.465 450.403 353.966 451.547 354.456 452.55ZM371.518 453.355C372.404 453.355 373.174 453.332 373.828 453.285C374.504 453.215 375.076 453.133 375.543 453.04V446.67C375.286 446.553 374.878 446.437 374.318 446.32C373.758 446.18 372.988 446.11 372.008 446.11C371.448 446.11 370.864 446.157 370.258 446.25C369.651 446.32 369.091 446.495 368.578 446.775C368.064 447.032 367.644 447.393 367.318 447.86C366.991 448.327 366.828 448.945 366.828 449.715C366.828 450.392 366.933 450.963 367.143 451.43C367.376 451.897 367.691 452.27 368.088 452.55C368.508 452.83 368.998 453.04 369.558 453.18C370.141 453.297 370.794 453.355 371.518 453.355ZM371.308 436.485C372.498 436.485 373.501 436.66 374.318 437.01C375.158 437.337 375.834 437.803 376.348 438.41C376.861 438.993 377.234 439.693 377.468 440.51C377.701 441.327 377.818 442.213 377.818 443.17V454.58C377.584 454.65 377.246 454.732 376.803 454.825C376.359 454.895 375.846 454.977 375.263 455.07C374.679 455.163 374.026 455.233 373.303 455.28C372.603 455.35 371.879 455.385 371.133 455.385C370.176 455.385 369.289 455.28 368.473 455.07C367.679 454.86 366.979 454.533 366.373 454.09C365.789 453.623 365.323 453.04 364.973 452.34C364.646 451.617 364.483 450.742 364.483 449.715C364.483 448.735 364.669 447.895 365.043 447.195C365.416 446.495 365.941 445.923 366.618 445.48C367.294 445.013 368.099 444.675 369.033 444.465C369.966 444.255 370.981 444.15 372.078 444.15C372.404 444.15 372.743 444.173 373.093 444.22C373.466 444.243 373.816 444.29 374.143 444.36C374.493 444.407 374.784 444.465 375.018 444.535C375.274 444.582 375.449 444.628 375.543 444.675V443.555C375.543 442.925 375.496 442.318 375.403 441.735C375.309 441.128 375.099 440.592 374.773 440.125C374.469 439.635 374.026 439.25 373.443 438.97C372.883 438.667 372.136 438.515 371.203 438.515C369.873 438.515 368.881 438.608 368.228 438.795C367.574 438.982 367.096 439.133 366.793 439.25L366.478 437.255C366.874 437.068 367.481 436.893 368.298 436.73C369.138 436.567 370.141 436.485 371.308 436.485ZM383.62 437.535C384.297 437.348 385.207 437.138 386.35 436.905C387.494 436.672 388.894 436.555 390.55 436.555C391.927 436.555 393.07 436.753 393.98 437.15C394.914 437.547 395.649 438.118 396.185 438.865C396.745 439.588 397.142 440.463 397.375 441.49C397.609 442.517 397.725 443.648 397.725 444.885V455H395.45V445.62C395.45 444.337 395.357 443.252 395.17 442.365C395.007 441.478 394.715 440.755 394.295 440.195C393.899 439.635 393.362 439.238 392.685 439.005C392.032 438.748 391.204 438.62 390.2 438.62C389.127 438.62 388.194 438.678 387.4 438.795C386.63 438.912 386.129 439.017 385.895 439.11V455H383.62V437.535ZM411.037 455.385C409.637 455.385 408.4 455.163 407.327 454.72C406.254 454.277 405.355 453.647 404.632 452.83C403.932 451.99 403.395 450.998 403.022 449.855C402.649 448.688 402.462 447.405 402.462 446.005C402.462 444.582 402.649 443.287 403.022 442.12C403.419 440.953 403.979 439.95 404.702 439.11C405.425 438.27 406.3 437.628 407.327 437.185C408.354 436.718 409.509 436.485 410.792 436.485C411.772 436.485 412.682 436.567 413.522 436.73C414.385 436.893 415.05 437.103 415.517 437.36L414.922 439.32C414.455 439.087 413.93 438.9 413.347 438.76C412.764 438.62 411.982 438.55 411.002 438.55C408.995 438.55 407.467 439.203 406.417 440.51C405.39 441.793 404.877 443.625 404.877 446.005C404.877 447.078 404.994 448.07 405.227 448.98C405.46 449.867 405.834 450.637 406.347 451.29C406.884 451.92 407.56 452.422 408.377 452.795C409.217 453.145 410.232 453.32 411.422 453.32C412.402 453.32 413.219 453.215 413.872 453.005C414.549 452.772 415.039 452.573 415.342 452.41L415.832 454.37C415.412 454.603 414.747 454.825 413.837 455.035C412.95 455.268 412.017 455.385 411.037 455.385ZM418.561 445.935C418.561 444.348 418.782 442.972 419.226 441.805C419.692 440.615 420.287 439.623 421.011 438.83C421.757 438.037 422.597 437.453 423.531 437.08C424.487 436.683 425.467 436.485 426.471 436.485C428.687 436.485 430.449 437.208 431.756 438.655C433.086 440.102 433.751 442.33 433.751 445.34C433.751 445.527 433.739 445.713 433.716 445.9C433.716 446.087 433.704 446.262 433.681 446.425H420.976C421.046 448.642 421.594 450.345 422.621 451.535C423.647 452.725 425.281 453.32 427.521 453.32C428.757 453.32 429.737 453.203 430.461 452.97C431.184 452.737 431.709 452.538 432.036 452.375L432.456 454.335C432.129 454.522 431.511 454.743 430.601 455C429.714 455.257 428.664 455.385 427.451 455.385C425.864 455.385 424.511 455.152 423.391 454.685C422.271 454.218 421.349 453.565 420.626 452.725C419.902 451.885 419.377 450.893 419.051 449.75C418.724 448.583 418.561 447.312 418.561 445.935ZM431.406 444.5C431.359 442.61 430.916 441.14 430.076 440.09C429.236 439.04 428.046 438.515 426.506 438.515C425.689 438.515 424.954 438.678 424.301 439.005C423.671 439.332 423.111 439.775 422.621 440.335C422.154 440.872 421.781 441.502 421.501 442.225C421.244 442.948 421.092 443.707 421.046 444.5H431.406ZM453.206 454.44C452.529 454.673 451.666 454.895 450.616 455.105C449.566 455.315 448.236 455.42 446.626 455.42C445.296 455.42 444.082 455.21 442.986 454.79C441.912 454.347 440.979 453.717 440.186 452.9C439.416 452.083 438.809 451.092 438.366 449.925C437.946 448.758 437.736 447.44 437.736 445.97C437.736 444.593 437.911 443.333 438.261 442.19C438.634 441.023 439.171 440.02 439.871 439.18C440.571 438.34 441.422 437.687 442.426 437.22C443.452 436.753 444.619 436.52 445.926 436.52C447.116 436.52 448.142 436.695 449.006 437.045C449.892 437.372 450.534 437.687 450.931 437.99V428.26L453.206 427.84V454.44ZM450.931 440.195C450.721 440.032 450.452 439.857 450.126 439.67C449.822 439.483 449.461 439.308 449.041 439.145C448.621 438.982 448.166 438.853 447.676 438.76C447.186 438.643 446.672 438.585 446.136 438.585C445.016 438.585 444.071 438.783 443.301 439.18C442.554 439.577 441.947 440.113 441.481 440.79C441.014 441.443 440.676 442.225 440.466 443.135C440.256 444.022 440.151 444.967 440.151 445.97C440.151 448.35 440.746 450.182 441.936 451.465C443.126 452.725 444.701 453.355 446.661 453.355C447.781 453.355 448.679 453.308 449.356 453.215C450.056 453.098 450.581 452.982 450.931 452.865V440.195ZM473.84 427.84C474.82 427.84 475.613 427.922 476.22 428.085C476.85 428.225 477.258 428.353 477.445 428.47L476.99 430.43C476.733 430.313 476.348 430.197 475.835 430.08C475.345 429.94 474.715 429.87 473.945 429.87C472.335 429.87 471.18 430.278 470.48 431.095C469.803 431.912 469.465 433.218 469.465 435.015V436.905H476.745V438.83H469.465V455H467.19V434.945C467.19 432.588 467.726 430.815 468.8 429.625C469.896 428.435 471.576 427.84 473.84 427.84ZM479.264 445.935C479.264 444.348 479.486 442.972 479.929 441.805C480.396 440.615 480.991 439.623 481.714 438.83C482.461 438.037 483.301 437.453 484.234 437.08C485.191 436.683 486.171 436.485 487.174 436.485C489.391 436.485 491.152 437.208 492.459 438.655C493.789 440.102 494.454 442.33 494.454 445.34C494.454 445.527 494.442 445.713 494.419 445.9C494.419 446.087 494.407 446.262 494.384 446.425H481.679C481.749 448.642 482.297 450.345 483.324 451.535C484.351 452.725 485.984 453.32 488.224 453.32C489.461 453.32 490.441 453.203 491.164 452.97C491.887 452.737 492.412 452.538 492.739 452.375L493.159 454.335C492.832 454.522 492.214 454.743 491.304 455C490.417 455.257 489.367 455.385 488.154 455.385C486.567 455.385 485.214 455.152 484.094 454.685C482.974 454.218 482.052 453.565 481.329 452.725C480.606 451.885 480.081 450.893 479.754 449.75C479.427 448.583 479.264 447.312 479.264 445.935ZM492.109 444.5C492.062 442.61 491.619 441.14 490.779 440.09C489.939 439.04 488.749 438.515 487.209 438.515C486.392 438.515 485.657 438.678 485.004 439.005C484.374 439.332 483.814 439.775 483.324 440.335C482.857 440.872 482.484 441.502 482.204 442.225C481.947 442.948 481.796 443.707 481.749 444.5H492.109ZM501.659 436.905H508.869V438.83H501.659V448.455C501.659 449.482 501.74 450.322 501.904 450.975C502.09 451.605 502.347 452.095 502.674 452.445C503 452.795 503.397 453.028 503.864 453.145C504.33 453.262 504.844 453.32 505.404 453.32C506.36 453.32 507.13 453.215 507.714 453.005C508.297 452.772 508.752 452.562 509.079 452.375L509.639 454.265C509.312 454.475 508.74 454.72 507.924 455C507.107 455.257 506.22 455.385 505.264 455.385C504.144 455.385 503.199 455.245 502.429 454.965C501.682 454.662 501.075 454.218 500.609 453.635C500.165 453.028 499.85 452.282 499.664 451.395C499.477 450.508 499.384 449.458 499.384 448.245V431.585L501.659 431.165V436.905ZM520.549 455.385C519.149 455.385 517.912 455.163 516.839 454.72C515.765 454.277 514.867 453.647 514.144 452.83C513.444 451.99 512.907 450.998 512.534 449.855C512.16 448.688 511.974 447.405 511.974 446.005C511.974 444.582 512.16 443.287 512.534 442.12C512.93 440.953 513.49 439.95 514.214 439.11C514.937 438.27 515.812 437.628 516.839 437.185C517.865 436.718 519.02 436.485 520.304 436.485C521.284 436.485 522.194 436.567 523.034 436.73C523.897 436.893 524.562 437.103 525.029 437.36L524.434 439.32C523.967 439.087 523.442 438.9 522.859 438.76C522.275 438.62 521.494 438.55 520.514 438.55C518.507 438.55 516.979 439.203 515.929 440.51C514.902 441.793 514.389 443.625 514.389 446.005C514.389 447.078 514.505 448.07 514.739 448.98C514.972 449.867 515.345 450.637 515.859 451.29C516.395 451.92 517.072 452.422 517.889 452.795C518.729 453.145 519.744 453.32 520.934 453.32C521.914 453.32 522.73 453.215 523.384 453.005C524.06 452.772 524.55 452.573 524.854 452.41L525.344 454.37C524.924 454.603 524.259 454.825 523.349 455.035C522.462 455.268 521.529 455.385 520.549 455.385ZM529.157 455V428.26L531.432 427.84V437.43C532.179 437.15 532.937 436.94 533.707 436.8C534.477 436.637 535.247 436.555 536.017 436.555C537.417 436.555 538.584 436.753 539.517 437.15C540.451 437.547 541.197 438.118 541.757 438.865C542.317 439.588 542.702 440.463 542.912 441.49C543.146 442.517 543.262 443.648 543.262 444.885V455H540.987V445.62C540.987 444.337 540.894 443.252 540.707 442.365C540.544 441.478 540.252 440.755 539.832 440.195C539.436 439.635 538.899 439.238 538.222 439.005C537.546 438.748 536.694 438.62 535.667 438.62C535.271 438.62 534.839 438.655 534.372 438.725C533.929 438.795 533.509 438.877 533.112 438.97C532.716 439.04 532.354 439.122 532.027 439.215C531.724 439.308 531.526 439.378 531.432 439.425V455H529.157ZM564.538 455.385C563.138 455.385 561.901 455.163 560.828 454.72C559.755 454.277 558.856 453.647 558.133 452.83C557.433 451.99 556.896 450.998 556.523 449.855C556.15 448.688 555.963 447.405 555.963 446.005C555.963 444.582 556.15 443.287 556.523 442.12C556.92 440.953 557.48 439.95 558.203 439.11C558.926 438.27 559.801 437.628 560.828 437.185C561.855 436.718 563.01 436.485 564.293 436.485C565.273 436.485 566.183 436.567 567.023 436.73C567.886 436.893 568.551 437.103 569.018 437.36L568.423 439.32C567.956 439.087 567.431 438.9 566.848 438.76C566.265 438.62 565.483 438.55 564.503 438.55C562.496 438.55 560.968 439.203 559.918 440.51C558.891 441.793 558.378 443.625 558.378 446.005C558.378 447.078 558.495 448.07 558.728 448.98C558.961 449.867 559.335 450.637 559.848 451.29C560.385 451.92 561.061 452.422 561.878 452.795C562.718 453.145 563.733 453.32 564.923 453.32C565.903 453.32 566.72 453.215 567.373 453.005C568.05 452.772 568.54 452.573 568.843 452.41L569.333 454.37C568.913 454.603 568.248 454.825 567.338 455.035C566.451 455.268 565.518 455.385 564.538 455.385ZM577.732 455.315C576.962 455.292 576.285 455.187 575.702 455C575.142 454.837 574.663 454.58 574.267 454.23C573.893 453.857 573.602 453.39 573.392 452.83C573.205 452.247 573.112 451.523 573.112 450.66V428.26L575.387 427.84V450.59C575.387 451.15 575.433 451.605 575.527 451.955C575.643 452.282 575.807 452.55 576.017 452.76C576.227 452.947 576.495 453.087 576.822 453.18C577.172 453.273 577.58 453.355 578.047 453.425L577.732 455.315ZM584.343 455H582.068V436.905H584.343V455ZM584.868 431.445C584.868 431.982 584.704 432.413 584.378 432.74C584.051 433.043 583.654 433.195 583.188 433.195C582.721 433.195 582.324 433.043 581.998 432.74C581.671 432.413 581.508 431.982 581.508 431.445C581.508 430.908 581.671 430.488 581.998 430.185C582.324 429.858 582.721 429.695 583.188 429.695C583.654 429.695 584.051 429.858 584.378 430.185C584.704 430.488 584.868 430.908 584.868 431.445ZM589.288 445.935C589.288 444.348 589.51 442.972 589.953 441.805C590.42 440.615 591.015 439.623 591.738 438.83C592.485 438.037 593.325 437.453 594.258 437.08C595.215 436.683 596.195 436.485 597.198 436.485C599.415 436.485 601.177 437.208 602.483 438.655C603.813 440.102 604.478 442.33 604.478 445.34C604.478 445.527 604.467 445.713 604.443 445.9C604.443 446.087 604.432 446.262 604.408 446.425H591.703C591.773 448.642 592.322 450.345 593.348 451.535C594.375 452.725 596.008 453.32 598.248 453.32C599.485 453.32 600.465 453.203 601.188 452.97C601.912 452.737 602.437 452.538 602.763 452.375L603.183 454.335C602.857 454.522 602.238 454.743 601.328 455C600.442 455.257 599.392 455.385 598.178 455.385C596.592 455.385 595.238 455.152 594.118 454.685C592.998 454.218 592.077 453.565 591.353 452.725C590.63 451.885 590.105 450.893 589.778 449.75C589.452 448.583 589.288 447.312 589.288 445.935ZM602.133 444.5C602.087 442.61 601.643 441.14 600.803 440.09C599.963 439.04 598.773 438.515 597.233 438.515C596.417 438.515 595.682 438.678 595.028 439.005C594.398 439.332 593.838 439.775 593.348 440.335C592.882 440.872 592.508 441.502 592.228 442.225C591.972 442.948 591.82 443.707 591.773 444.5H602.133ZM609.548 437.535C610.225 437.348 611.135 437.138 612.278 436.905C613.421 436.672 614.821 436.555 616.478 436.555C617.855 436.555 618.998 436.753 619.908 437.15C620.841 437.547 621.576 438.118 622.113 438.865C622.673 439.588 623.07 440.463 623.303 441.49C623.536 442.517 623.653 443.648 623.653 444.885V455H621.378V445.62C621.378 444.337 621.285 443.252 621.098 442.365C620.935 441.478 620.643 440.755 620.223 440.195C619.826 439.635 619.29 439.238 618.613 439.005C617.96 438.748 617.131 438.62 616.128 438.62C615.055 438.62 614.121 438.678 613.328 438.795C612.558 438.912 612.056 439.017 611.823 439.11V455H609.548V437.535ZM631.61 436.905H638.82V438.83H631.61V448.455C631.61 449.482 631.692 450.322 631.855 450.975C632.042 451.605 632.298 452.095 632.625 452.445C632.952 452.795 633.348 453.028 633.815 453.145C634.282 453.262 634.795 453.32 635.355 453.32C636.312 453.32 637.082 453.215 637.665 453.005C638.248 452.772 638.703 452.562 639.03 452.375L639.59 454.265C639.263 454.475 638.692 454.72 637.875 455C637.058 455.257 636.172 455.385 635.215 455.385C634.095 455.385 633.15 455.245 632.38 454.965C631.633 454.662 631.027 454.218 630.56 453.635C630.117 453.028 629.802 452.282 629.615 451.395C629.428 450.508 629.335 449.458 629.335 448.245V431.585L631.61 431.165V436.905ZM653.249 437.99C653.646 437.687 654.276 437.372 655.139 437.045C656.026 436.695 657.064 436.52 658.254 436.52C659.561 436.52 660.716 436.753 661.719 437.22C662.746 437.687 663.609 438.34 664.309 439.18C665.009 440.02 665.534 441.023 665.884 442.19C666.257 443.333 666.444 444.593 666.444 445.97C666.444 447.44 666.222 448.758 665.779 449.925C665.359 451.092 664.752 452.083 663.959 452.9C663.189 453.717 662.256 454.347 661.159 454.79C660.086 455.21 658.884 455.42 657.554 455.42C655.944 455.42 654.614 455.315 653.564 455.105C652.514 454.895 651.651 454.673 650.974 454.44V428.26L653.249 427.84V437.99ZM653.249 452.865C653.599 452.982 654.112 453.098 654.789 453.215C655.489 453.308 656.399 453.355 657.519 453.355C659.479 453.355 661.054 452.725 662.244 451.465C663.434 450.182 664.029 448.35 664.029 445.97C664.029 444.967 663.924 444.022 663.714 443.135C663.504 442.225 663.166 441.443 662.699 440.79C662.232 440.113 661.614 439.577 660.844 439.18C660.097 438.783 659.164 438.585 658.044 438.585C657.507 438.585 656.994 438.643 656.504 438.76C656.014 438.853 655.559 438.982 655.139 439.145C654.719 439.308 654.346 439.483 654.019 439.67C653.716 439.857 653.459 440.032 653.249 440.195V452.865ZM685.274 454.37C684.597 454.557 683.687 454.767 682.544 455C681.401 455.233 680.001 455.35 678.344 455.35C676.991 455.35 675.859 455.152 674.949 454.755C674.039 454.358 673.304 453.798 672.744 453.075C672.184 452.352 671.776 451.477 671.519 450.45C671.286 449.423 671.169 448.292 671.169 447.055V436.905H673.444V446.32C673.444 447.603 673.537 448.688 673.724 449.575C673.911 450.462 674.214 451.185 674.634 451.745C675.054 452.282 675.591 452.678 676.244 452.935C676.921 453.168 677.737 453.285 678.694 453.285C679.767 453.285 680.701 453.227 681.494 453.11C682.287 452.993 682.789 452.888 682.999 452.795V436.905H685.274V454.37ZM693.581 455H691.306V436.905H693.581V455ZM694.106 431.445C694.106 431.982 693.943 432.413 693.616 432.74C693.289 433.043 692.893 433.195 692.426 433.195C691.959 433.195 691.563 433.043 691.236 432.74C690.909 432.413 690.746 431.982 690.746 431.445C690.746 430.908 690.909 430.488 691.236 430.185C691.563 429.858 691.959 429.695 692.426 429.695C692.893 429.695 693.289 429.858 693.616 430.185C693.943 430.488 694.106 430.908 694.106 431.445ZM704.197 455.315C703.427 455.292 702.75 455.187 702.167 455C701.607 454.837 701.128 454.58 700.732 454.23C700.358 453.857 700.067 453.39 699.857 452.83C699.67 452.247 699.577 451.523 699.577 450.66V428.26L701.852 427.84V450.59C701.852 451.15 701.898 451.605 701.992 451.955C702.108 452.282 702.272 452.55 702.482 452.76C702.692 452.947 702.96 453.087 703.287 453.18C703.637 453.273 704.045 453.355 704.512 453.425L704.197 455.315ZM722.917 454.44C722.241 454.673 721.377 454.895 720.327 455.105C719.277 455.315 717.947 455.42 716.337 455.42C715.007 455.42 713.794 455.21 712.697 454.79C711.624 454.347 710.691 453.717 709.897 452.9C709.127 452.083 708.521 451.092 708.077 449.925C707.657 448.758 707.447 447.44 707.447 445.97C707.447 444.593 707.622 443.333 707.972 442.19C708.346 441.023 708.882 440.02 709.582 439.18C710.282 438.34 711.134 437.687 712.137 437.22C713.164 436.753 714.331 436.52 715.637 436.52C716.827 436.52 717.854 436.695 718.717 437.045C719.604 437.372 720.246 437.687 720.642 437.99V428.26L722.917 427.84V454.44ZM720.642 440.195C720.432 440.032 720.164 439.857 719.837 439.67C719.534 439.483 719.172 439.308 718.752 439.145C718.332 438.982 717.877 438.853 717.387 438.76C716.897 438.643 716.384 438.585 715.847 438.585C714.727 438.585 713.782 438.783 713.012 439.18C712.266 439.577 711.659 440.113 711.192 440.79C710.726 441.443 710.387 442.225 710.177 443.135C709.967 444.022 709.862 444.967 709.862 445.97C709.862 448.35 710.457 450.182 711.647 451.465C712.837 452.725 714.412 453.355 716.372 453.355C717.492 453.355 718.391 453.308 719.067 453.215C719.767 453.098 720.292 452.982 720.642 452.865V440.195ZM727.853 445.935C727.853 444.348 728.074 442.972 728.518 441.805C728.984 440.615 729.579 439.623 730.303 438.83C731.049 438.037 731.889 437.453 732.823 437.08C733.779 436.683 734.759 436.485 735.763 436.485C737.979 436.485 739.741 437.208 741.048 438.655C742.378 440.102 743.043 442.33 743.043 445.34C743.043 445.527 743.031 445.713 743.008 445.9C743.008 446.087 742.996 446.262 742.973 446.425H730.268C730.338 448.642 730.886 450.345 731.913 451.535C732.939 452.725 734.573 453.32 736.813 453.32C738.049 453.32 739.029 453.203 739.753 452.97C740.476 452.737 741.001 452.538 741.328 452.375L741.748 454.335C741.421 454.522 740.803 454.743 739.893 455C739.006 455.257 737.956 455.385 736.743 455.385C735.156 455.385 733.803 455.152 732.683 454.685C731.563 454.218 730.641 453.565 729.918 452.725C729.194 451.885 728.669 450.893 728.343 449.75C728.016 448.583 727.853 447.312 727.853 445.935ZM740.698 444.5C740.651 442.61 740.208 441.14 739.368 440.09C738.528 439.04 737.338 438.515 735.798 438.515C734.981 438.515 734.246 438.678 733.593 439.005C732.963 439.332 732.403 439.775 731.913 440.335C731.446 440.872 731.073 441.502 730.793 442.225C730.536 442.948 730.384 443.707 730.338 444.5H740.698ZM754.273 436.555C755.019 436.555 755.719 436.613 756.373 436.73C757.049 436.847 757.516 436.963 757.773 437.08L757.318 439.04C757.131 438.947 756.746 438.853 756.163 438.76C755.603 438.643 754.856 438.585 753.923 438.585C752.943 438.585 752.149 438.655 751.543 438.795C750.959 438.935 750.574 439.052 750.388 439.145V455H748.113V437.745C748.696 437.488 749.501 437.232 750.528 436.975C751.554 436.695 752.803 436.555 754.273 436.555ZM775.817 427.84C776.797 427.84 777.591 427.922 778.197 428.085C778.827 428.225 779.236 428.353 779.422 428.47L778.967 430.43C778.711 430.313 778.326 430.197 777.812 430.08C777.322 429.94 776.692 429.87 775.922 429.87C774.312 429.87 773.157 430.278 772.457 431.095C771.781 431.912 771.442 433.218 771.442 435.015V436.905H778.722V438.83H771.442V455H769.167V434.945C769.167 432.588 769.704 430.815 770.777 429.625C771.874 428.435 773.554 427.84 775.817 427.84ZM797.761 445.97C797.761 447.393 797.551 448.688 797.131 449.855C796.735 451.022 796.163 452.013 795.416 452.83C794.693 453.647 793.83 454.288 792.826 454.755C791.823 455.198 790.715 455.42 789.501 455.42C788.288 455.42 787.18 455.198 786.176 454.755C785.173 454.288 784.298 453.647 783.551 452.83C782.828 452.013 782.256 451.022 781.836 449.855C781.44 448.688 781.241 447.393 781.241 445.97C781.241 444.547 781.44 443.252 781.836 442.085C782.256 440.918 782.828 439.927 783.551 439.11C784.298 438.27 785.173 437.628 786.176 437.185C787.18 436.718 788.288 436.485 789.501 436.485C790.715 436.485 791.823 436.718 792.826 437.185C793.83 437.628 794.693 438.27 795.416 439.11C796.163 439.927 796.735 440.918 797.131 442.085C797.551 443.252 797.761 444.547 797.761 445.97ZM795.346 445.97C795.346 443.707 794.821 441.91 793.771 440.58C792.721 439.227 791.298 438.55 789.501 438.55C787.705 438.55 786.281 439.227 785.231 440.58C784.181 441.91 783.656 443.707 783.656 445.97C783.656 448.233 784.181 450.03 785.231 451.36C786.281 452.69 787.705 453.355 789.501 453.355C791.298 453.355 792.721 452.69 793.771 451.36C794.821 450.03 795.346 448.233 795.346 445.97ZM808.858 436.555C809.604 436.555 810.304 436.613 810.958 436.73C811.634 436.847 812.101 436.963 812.358 437.08L811.903 439.04C811.716 438.947 811.331 438.853 810.748 438.76C810.188 438.643 809.441 438.585 808.508 438.585C807.528 438.585 806.734 438.655 806.128 438.795C805.544 438.935 805.159 439.052 804.973 439.145V455H802.698V437.745C803.281 437.488 804.086 437.232 805.113 436.975C806.139 436.695 807.388 436.555 808.858 436.555ZM825.887 436.905H833.097V438.83H825.887V448.455C825.887 449.482 825.969 450.322 826.132 450.975C826.319 451.605 826.576 452.095 826.902 452.445C827.229 452.795 827.626 453.028 828.092 453.145C828.559 453.262 829.072 453.32 829.632 453.32C830.589 453.32 831.359 453.215 831.942 453.005C832.526 452.772 832.981 452.562 833.307 452.375L833.867 454.265C833.541 454.475 832.969 454.72 832.152 455C831.336 455.257 830.449 455.385 829.492 455.385C828.372 455.385 827.427 455.245 826.657 454.965C825.911 454.662 825.304 454.218 824.837 453.635C824.394 453.028 824.079 452.282 823.892 451.395C823.706 450.508 823.612 449.458 823.612 448.245V431.585L825.887 431.165V436.905ZM842.222 455.385C841.452 453.962 840.706 452.48 839.982 450.94C839.282 449.4 838.617 447.848 837.987 446.285C837.381 444.698 836.821 443.123 836.307 441.56C835.794 439.973 835.351 438.422 834.977 436.905H837.392C837.649 438.025 837.976 439.238 838.372 440.545C838.769 441.828 839.212 443.158 839.702 444.535C840.216 445.912 840.776 447.323 841.382 448.77C841.989 450.217 842.642 451.64 843.342 453.04C843.856 451.593 844.311 450.228 844.707 448.945C845.104 447.662 845.466 446.39 845.792 445.13C846.142 443.847 846.469 442.54 846.772 441.21C847.099 439.88 847.437 438.445 847.787 436.905H850.062C849.316 440.288 848.464 443.578 847.507 446.775C846.551 449.972 845.512 452.9 844.392 455.56C843.949 456.61 843.494 457.508 843.027 458.255C842.561 459.025 842.036 459.655 841.452 460.145C840.892 460.635 840.227 460.997 839.457 461.23C838.711 461.463 837.824 461.58 836.797 461.58C836.214 461.58 835.677 461.51 835.187 461.37C834.721 461.23 834.429 461.125 834.312 461.055L834.767 459.165C834.861 459.235 835.117 459.328 835.537 459.445C835.981 459.585 836.436 459.655 836.902 459.655C837.556 459.655 838.139 459.585 838.652 459.445C839.189 459.305 839.667 459.06 840.087 458.71C840.507 458.383 840.881 457.952 841.207 457.415C841.557 456.878 841.896 456.202 842.222 455.385ZM856.139 451.745C856.349 451.908 856.606 452.083 856.909 452.27C857.236 452.457 857.609 452.632 858.029 452.795C858.449 452.958 858.904 453.098 859.394 453.215C859.884 453.308 860.398 453.355 860.934 453.355C862.054 453.355 862.988 453.168 863.734 452.795C864.504 452.398 865.123 451.873 865.589 451.22C866.056 450.543 866.394 449.762 866.604 448.875C866.814 447.965 866.919 447.008 866.919 446.005C866.919 443.625 866.324 441.805 865.134 440.545C863.944 439.262 862.369 438.62 860.409 438.62C859.289 438.62 858.379 438.678 857.679 438.795C857.003 438.888 856.489 438.993 856.139 439.11V451.745ZM856.139 461.475H853.864V437.535C854.541 437.302 855.404 437.08 856.454 436.87C857.504 436.66 858.834 436.555 860.444 436.555C861.774 436.555 862.976 436.777 864.049 437.22C865.146 437.64 866.079 438.258 866.849 439.075C867.643 439.892 868.249 440.883 868.669 442.05C869.113 443.217 869.334 444.535 869.334 446.005C869.334 447.382 869.148 448.653 868.774 449.82C868.424 450.963 867.899 451.955 867.199 452.795C866.499 453.612 865.636 454.253 864.609 454.72C863.606 455.187 862.451 455.42 861.144 455.42C859.954 455.42 858.916 455.257 858.029 454.93C857.166 454.58 856.536 454.253 856.139 453.95V461.475ZM873.185 445.935C873.185 444.348 873.406 442.972 873.85 441.805C874.316 440.615 874.911 439.623 875.635 438.83C876.381 438.037 877.221 437.453 878.155 437.08C879.111 436.683 880.091 436.485 881.095 436.485C883.311 436.485 885.073 437.208 886.38 438.655C887.71 440.102 888.375 442.33 888.375 445.34C888.375 445.527 888.363 445.713 888.34 445.9C888.34 446.087 888.328 446.262 888.305 446.425H875.6C875.67 448.642 876.218 450.345 877.245 451.535C878.271 452.725 879.905 453.32 882.145 453.32C883.381 453.32 884.361 453.203 885.085 452.97C885.808 452.737 886.333 452.538 886.66 452.375L887.08 454.335C886.753 454.522 886.135 454.743 885.225 455C884.338 455.257 883.288 455.385 882.075 455.385C880.488 455.385 879.135 455.152 878.015 454.685C876.895 454.218 875.973 453.565 875.25 452.725C874.526 451.885 874.001 450.893 873.675 449.75C873.348 448.583 873.185 447.312 873.185 445.935ZM886.03 444.5C885.983 442.61 885.54 441.14 884.7 440.09C883.86 439.04 882.67 438.515 881.13 438.515C880.313 438.515 879.578 438.678 878.925 439.005C878.295 439.332 877.735 439.775 877.245 440.335C876.778 440.872 876.405 441.502 876.125 442.225C875.868 442.948 875.716 443.707 875.67 444.5H886.03ZM897.155 453.39C898.461 453.39 899.535 453.18 900.375 452.76C901.238 452.317 901.67 451.582 901.67 450.555C901.67 450.065 901.588 449.645 901.425 449.295C901.285 448.945 901.04 448.63 900.69 448.35C900.34 448.07 899.873 447.802 899.29 447.545C898.73 447.288 898.03 446.985 897.19 446.635C896.513 446.355 895.871 446.075 895.265 445.795C894.658 445.492 894.121 445.153 893.655 444.78C893.188 444.383 892.815 443.917 892.535 443.38C892.255 442.843 892.115 442.19 892.115 441.42C892.115 439.95 892.663 438.76 893.76 437.85C894.88 436.94 896.408 436.485 898.345 436.485C899.581 436.485 900.596 436.59 901.39 436.8C902.206 437.01 902.778 437.197 903.105 437.36L902.58 439.39C902.3 439.25 901.821 439.063 901.145 438.83C900.491 438.597 899.523 438.48 898.24 438.48C897.726 438.48 897.236 438.538 896.77 438.655C896.326 438.748 895.93 438.912 895.58 439.145C895.23 439.355 894.95 439.635 894.74 439.985C894.53 440.312 894.425 440.72 894.425 441.21C894.425 441.7 894.518 442.12 894.705 442.47C894.891 442.82 895.16 443.135 895.51 443.415C895.883 443.672 896.326 443.917 896.84 444.15C897.376 444.383 897.983 444.64 898.66 444.92C899.36 445.2 900.025 445.492 900.655 445.795C901.308 446.075 901.88 446.425 902.37 446.845C902.86 447.242 903.256 447.732 903.56 448.315C903.863 448.875 904.015 449.587 904.015 450.45C904.015 452.083 903.396 453.32 902.16 454.16C900.946 455 899.278 455.42 897.155 455.42C895.568 455.42 894.355 455.28 893.515 455C892.675 454.743 892.115 454.545 891.835 454.405L892.43 452.34C892.5 452.387 892.651 452.468 892.885 452.585C893.118 452.678 893.433 452.795 893.83 452.935C894.226 453.052 894.693 453.157 895.23 453.25C895.79 453.343 896.431 453.39 897.155 453.39ZM915.905 455.385C914.505 455.385 913.269 455.163 912.195 454.72C911.122 454.277 910.224 453.647 909.5 452.83C908.8 451.99 908.264 450.998 907.89 449.855C907.517 448.688 907.33 447.405 907.33 446.005C907.33 444.582 907.517 443.287 907.89 442.12C908.287 440.953 908.847 439.95 909.57 439.11C910.294 438.27 911.169 437.628 912.195 437.185C913.222 436.718 914.377 436.485 915.66 436.485C916.64 436.485 917.55 436.567 918.39 436.73C919.254 436.893 919.919 437.103 920.385 437.36L919.79 439.32C919.324 439.087 918.799 438.9 918.215 438.76C917.632 438.62 916.85 438.55 915.87 438.55C913.864 438.55 912.335 439.203 911.285 440.51C910.259 441.793 909.745 443.625 909.745 446.005C909.745 447.078 909.862 448.07 910.095 448.98C910.329 449.867 910.702 450.637 911.215 451.29C911.752 451.92 912.429 452.422 913.245 452.795C914.085 453.145 915.1 453.32 916.29 453.32C917.27 453.32 918.087 453.215 918.74 453.005C919.417 452.772 919.907 452.573 920.21 452.41L920.7 454.37C920.28 454.603 919.615 454.825 918.705 455.035C917.819 455.268 916.885 455.385 915.905 455.385ZM930.674 436.555C931.421 436.555 932.121 436.613 932.774 436.73C933.451 436.847 933.917 436.963 934.174 437.08L933.719 439.04C933.532 438.947 933.147 438.853 932.564 438.76C932.004 438.643 931.257 438.585 930.324 438.585C929.344 438.585 928.551 438.655 927.944 438.795C927.361 438.935 926.976 439.052 926.789 439.145V455H924.514V437.745C925.097 437.488 925.902 437.232 926.929 436.975C927.956 436.695 929.204 436.555 930.674 436.555ZM939.88 455H937.605V436.905H939.88V455ZM940.405 431.445C940.405 431.982 940.241 432.413 939.915 432.74C939.588 433.043 939.191 433.195 938.725 433.195C938.258 433.195 937.861 433.043 937.535 432.74C937.208 432.413 937.045 431.982 937.045 431.445C937.045 430.908 937.208 430.488 937.535 430.185C937.861 429.858 938.258 429.695 938.725 429.695C939.191 429.695 939.588 429.858 939.915 430.185C940.241 430.488 940.405 430.908 940.405 431.445ZM948.185 451.745C948.395 451.908 948.652 452.083 948.955 452.27C949.282 452.457 949.655 452.632 950.075 452.795C950.495 452.958 950.95 453.098 951.44 453.215C951.93 453.308 952.444 453.355 952.98 453.355C954.1 453.355 955.034 453.168 955.78 452.795C956.55 452.398 957.169 451.873 957.635 451.22C958.102 450.543 958.44 449.762 958.65 448.875C958.86 447.965 958.965 447.008 958.965 446.005C958.965 443.625 958.37 441.805 957.18 440.545C955.99 439.262 954.415 438.62 952.455 438.62C951.335 438.62 950.425 438.678 949.725 438.795C949.049 438.888 948.535 438.993 948.185 439.11V451.745ZM948.185 461.475H945.91V437.535C946.587 437.302 947.45 437.08 948.5 436.87C949.55 436.66 950.88 436.555 952.49 436.555C953.82 436.555 955.022 436.777 956.095 437.22C957.192 437.64 958.125 438.258 958.895 439.075C959.689 439.892 960.295 440.883 960.715 442.05C961.159 443.217 961.38 444.535 961.38 446.005C961.38 447.382 961.194 448.653 960.82 449.82C960.47 450.963 959.945 451.955 959.245 452.795C958.545 453.612 957.682 454.253 956.655 454.72C955.652 455.187 954.497 455.42 953.19 455.42C952 455.42 950.962 455.257 950.075 454.93C949.212 454.58 948.582 454.253 948.185 453.95V461.475ZM968.451 436.905H975.661V438.83H968.451V448.455C968.451 449.482 968.532 450.322 968.696 450.975C968.882 451.605 969.139 452.095 969.466 452.445C969.792 452.795 970.189 453.028 970.656 453.145C971.122 453.262 971.636 453.32 972.196 453.32C973.152 453.32 973.922 453.215 974.506 453.005C975.089 452.772 975.544 452.562 975.871 452.375L976.431 454.265C976.104 454.475 975.532 454.72 974.716 455C973.899 455.257 973.012 455.385 972.056 455.385C970.936 455.385 969.991 455.245 969.221 454.965C968.474 454.662 967.867 454.218 967.401 453.635C966.957 453.028 966.642 452.282 966.456 451.395C966.269 450.508 966.176 449.458 966.176 448.245V431.585L968.451 431.165V436.905Z" fill="white" fill-opacity="0.87"/>
</svg>
