<svg width="400" height="128" viewBox="0 0 400 128" fill="none" xmlns="http://www.w3.org/2000/svg">
<path d="M81.6 99.4C79.2667 100 76.2333 100.6 72.5 101.2C68.7667 101.867 64.6667 102.2 60.2 102.2C56 102.2 52.4667 101.6 49.6 100.4C46.8 99.2 44.5333 97.5333 42.8 95.4C41.1333 93.2667 39.9333 90.7333 39.2 87.8C38.4667 84.8 38.1 81.5333 38.1 78V48.7H50.2V76.1C50.2 81.7 51 85.7 52.6 88.1C54.2667 90.5 57.1333 91.7 61.2 91.7C62.6667 91.7 64.2 91.6333 65.8 91.5C67.4667 91.3667 68.7 91.2 69.5 91V48.7H81.6V99.4ZM127.701 75.1C127.701 69.7 126.467 65.5 124.001 62.5C121.601 59.5 117.701 58 112.301 58C111.167 58 109.967 58.0667 108.701 58.2C107.501 58.2667 106.301 58.4667 105.101 58.8V88.7C106.167 89.4333 107.567 90.1333 109.301 90.8C111.101 91.4 113.001 91.7 115.001 91.7C119.401 91.7 122.601 90.2 124.601 87.2C126.667 84.2 127.701 80.1667 127.701 75.1ZM140.101 74.9C140.101 78.9 139.567 82.5667 138.501 85.9C137.501 89.2333 136.034 92.1 134.101 94.5C132.167 96.9 129.734 98.7667 126.801 100.1C123.934 101.433 120.667 102.1 117.001 102.1C114.534 102.1 112.267 101.8 110.201 101.2C108.134 100.6 106.434 99.9333 105.101 99.2V119.5H93.0008V50.4C95.4674 49.7333 98.5008 49.1 102.101 48.5C105.701 47.9 109.501 47.6 113.501 47.6C117.634 47.6 121.334 48.2333 124.601 49.5C127.867 50.7667 130.634 52.6 132.901 55C135.234 57.3333 137.001 60.2 138.201 63.6C139.467 66.9333 140.101 70.7 140.101 74.9Z" fill="#007D90"/>
<path d="M169.871 23.4C172.671 23.4 175.138 23.6667 177.271 24.2C179.404 24.6667 181.004 25.1 182.071 25.5L179.771 35.5C178.638 34.9667 177.304 34.5333 175.771 34.2C174.304 33.8667 172.704 33.7 170.971 33.7C169.038 33.7 167.404 34 166.071 34.6C164.738 35.1333 163.671 35.9 162.871 36.9C162.071 37.9 161.504 39.1333 161.171 40.6C160.838 42 160.671 43.5333 160.671 45.2V48.7H179.671V58.8H160.671V101H148.571V45C148.571 38.2667 150.338 33 153.871 29.2C157.404 25.3333 162.738 23.4 169.871 23.4ZM180.734 75.1C180.734 70.5 181.4 66.4667 182.734 63C184.134 59.5333 185.967 56.6667 188.234 54.4C190.5 52.0667 193.1 50.3333 196.034 49.2C198.967 48 201.967 47.4 205.034 47.4C212.234 47.4 217.834 49.6333 221.834 54.1C225.9 58.5667 227.934 65.2333 227.934 74.1C227.934 74.7667 227.9 75.5333 227.834 76.4C227.834 77.2 227.8 77.9333 227.734 78.6H193.234C193.567 82.8 195.034 86.0667 197.634 88.4C200.3 90.6667 204.134 91.8 209.134 91.8C212.067 91.8 214.734 91.5333 217.134 91C219.6 90.4667 221.534 89.9 222.934 89.3L224.534 99.2C223.867 99.5333 222.934 99.9 221.734 100.3C220.6 100.633 219.267 100.933 217.734 101.2C216.267 101.533 214.667 101.8 212.934 102C211.2 102.2 209.434 102.3 207.634 102.3C203.034 102.3 199.034 101.633 195.634 100.3C192.234 98.9 189.434 97 187.234 94.6C185.034 92.1333 183.4 89.2667 182.334 86C181.267 82.6667 180.734 79.0333 180.734 75.1ZM215.834 69.7C215.834 68.0333 215.6 66.4667 215.134 65C214.667 63.4667 213.967 62.1667 213.034 61.1C212.167 59.9667 211.067 59.1 209.734 58.5C208.467 57.8333 206.934 57.5 205.134 57.5C203.267 57.5 201.634 57.8667 200.234 58.6C198.834 59.2667 197.634 60.1667 196.634 61.3C195.7 62.4333 194.967 63.7333 194.434 65.2C193.9 66.6667 193.534 68.1667 193.334 69.7H215.834ZM236.163 34.9L248.263 32.9V48.7H266.863V58.8H248.263V80.1C248.263 84.3 248.929 87.3 250.263 89.1C251.596 90.9 253.863 91.8 257.063 91.8C259.263 91.8 261.196 91.5667 262.863 91.1C264.596 90.6333 265.963 90.2 266.963 89.8L268.963 99.4C267.563 100 265.729 100.6 263.463 101.2C261.196 101.867 258.529 102.2 255.462 102.2C251.729 102.2 248.596 101.7 246.063 100.7C243.596 99.7 241.629 98.2667 240.163 96.4C238.696 94.4667 237.663 92.1667 237.063 89.5C236.463 86.7667 236.163 83.6667 236.163 80.2V34.9ZM270.585 74.9C270.585 71.0333 271.185 67.4333 272.385 64.1C273.585 60.7 275.285 57.7667 277.485 55.3C279.752 52.8333 282.485 50.9 285.685 49.5C288.885 48.1 292.485 47.4 296.485 47.4C301.418 47.4 306.085 48.3 310.485 50.1L307.885 60C306.485 59.4 304.885 58.9 303.085 58.5C301.352 58.1 299.485 57.9 297.485 57.9C292.752 57.9 289.152 59.4 286.685 62.4C284.218 65.3333 282.985 69.5 282.985 74.9C282.985 80.1 284.152 84.2333 286.485 87.3C288.818 90.3 292.752 91.8 298.285 91.8C300.352 91.8 302.385 91.6 304.385 91.2C306.385 90.8 308.118 90.3 309.585 89.7L311.285 99.7C309.952 100.367 307.918 100.967 305.185 101.5C302.518 102.033 299.752 102.3 296.885 102.3C292.418 102.3 288.518 101.633 285.185 100.3C281.918 98.9 279.185 97 276.985 94.6C274.852 92.1333 273.252 89.2333 272.185 85.9C271.118 82.5 270.585 78.8333 270.585 74.9ZM316.653 101V25.4L328.753 23.4V49.3C330.086 48.8333 331.62 48.4333 333.353 48.1C335.153 47.7667 336.92 47.6 338.653 47.6C342.853 47.6 346.32 48.2 349.053 49.4C351.853 50.5333 354.086 52.1667 355.753 54.3C357.42 56.3667 358.586 58.8667 359.253 61.8C359.986 64.7333 360.353 68 360.353 71.6V101H348.253V73.5C348.253 70.7 348.053 68.3333 347.653 66.4C347.32 64.4 346.72 62.8 345.853 61.6C345.053 60.3333 343.953 59.4333 342.553 58.9C341.153 58.3 339.42 58 337.353 58C335.753 58 334.12 58.1667 332.453 58.5C330.786 58.8333 329.553 59.1333 328.753 59.4V101H316.653Z" fill="#1A1A1A"/>
</svg>
