<svg width="400" height="150" viewBox="0 0 400 150" fill="none" xmlns="http://www.w3.org/2000/svg">
<path fill="#0D9BBF" d="M81.6 110.4C79.2667 111 76.2333 111.6 72.5 112.2C68.7667 112.867 64.6667 113.2 60.2 113.2C56 113.2 52.4667 112.6 49.6 111.4C46.8 110.2 44.5333 108.533 42.8 106.4C41.1333 104.267 39.9333 101.733 39.2 98.8C38.4667 95.8 38.1 92.5333 38.1 89V59.7H50.2V87.1C50.2 92.7 51 96.7 52.6 99.1C54.2667 101.5 57.1333 102.7 61.2 102.7C62.6667 102.7 64.2 102.633 65.8 102.5C67.4667 102.367 68.7 102.2 69.5 102V59.7H81.6V110.4ZM127.701 86.1C127.701 80.7 126.467 76.5 124.001 73.5C121.601 70.5 117.701 69 112.301 69C111.167 69 109.967 69.0667 108.701 69.2C107.501 69.2667 106.301 69.4667 105.101 69.8V99.7C106.167 100.433 107.567 101.133 109.301 101.8C111.101 102.4 113.001 102.7 115.001 102.7C119.401 102.7 122.601 101.2 124.601 98.2C126.667 95.2 127.701 91.1667 127.701 86.1ZM140.101 85.9C140.101 89.9 139.567 93.5667 138.501 96.9C137.501 100.233 136.034 103.1 134.101 105.5C132.167 107.9 129.734 109.767 126.801 111.1C123.934 112.433 120.667 113.1 117.001 113.1C114.534 113.1 112.267 112.8 110.201 112.2C108.134 111.6 106.434 110.933 105.101 110.2V130.5H93.0008V61.4C95.4674 60.7333 98.5008 60.1 102.101 59.5C105.701 58.9 109.501 58.6 113.501 58.6C117.634 58.6 121.334 59.2333 124.601 60.5C127.867 61.7667 130.634 63.6 132.901 66C135.234 68.3333 137.001 71.2 138.201 74.6C139.467 77.9333 140.101 81.7 140.101 85.9Z" />
<path  fill="#DBDBDB" d="M169.871 34.4C172.671 34.4 175.138 34.6667 177.271 35.2C179.404 35.6667 181.004 36.1 182.071 36.5L179.771 46.5C178.638 45.9667 177.304 45.5333 175.771 45.2C174.304 44.8667 172.704 44.7 170.971 44.7C169.038 44.7 167.404 45 166.071 45.6C164.738 46.1333 163.671 46.9 162.871 47.9C162.071 48.9 161.504 50.1333 161.171 51.6C160.838 53 160.671 54.5333 160.671 56.2V59.7H179.671V69.8H160.671V112H148.571V56C148.571 49.2667 150.338 44 153.871 40.2C157.404 36.3333 162.738 34.4 169.871 34.4ZM180.734 86.1C180.734 81.5 181.4 77.4667 182.734 74C184.134 70.5333 185.967 67.6667 188.234 65.4C190.5 63.0667 193.1 61.3333 196.034 60.2C198.967 59 201.967 58.4 205.034 58.4C212.234 58.4 217.834 60.6333 221.834 65.1C225.9 69.5667 227.934 76.2333 227.934 85.1C227.934 85.7667 227.9 86.5333 227.834 87.4C227.834 88.2 227.8 88.9333 227.734 89.6H193.234C193.567 93.8 195.034 97.0667 197.634 99.4C200.3 101.667 204.134 102.8 209.134 102.8C212.067 102.8 214.734 102.533 217.134 102C219.6 101.467 221.534 100.9 222.934 100.3L224.534 110.2C223.867 110.533 222.934 110.9 221.734 111.3C220.6 111.633 219.267 111.933 217.734 112.2C216.267 112.533 214.667 112.8 212.934 113C211.2 113.2 209.434 113.3 207.634 113.3C203.034 113.3 199.034 112.633 195.634 111.3C192.234 109.9 189.434 108 187.234 105.6C185.034 103.133 183.4 100.267 182.334 97C181.267 93.6667 180.734 90.0333 180.734 86.1ZM215.834 80.7C215.834 79.0333 215.6 77.4667 215.134 76C214.667 74.4667 213.967 73.1667 213.034 72.1C212.167 70.9667 211.067 70.1 209.734 69.5C208.467 68.8333 206.934 68.5 205.134 68.5C203.267 68.5 201.634 68.8667 200.234 69.6C198.834 70.2667 197.634 71.1667 196.634 72.3C195.7 73.4333 194.967 74.7333 194.434 76.2C193.9 77.6667 193.534 79.1667 193.334 80.7H215.834ZM236.163 45.9L248.263 43.9V59.7H266.863V69.8H248.263V91.1C248.263 95.3 248.929 98.3 250.263 100.1C251.596 101.9 253.863 102.8 257.063 102.8C259.263 102.8 261.196 102.567 262.863 102.1C264.596 101.633 265.963 101.2 266.963 100.8L268.963 110.4C267.563 111 265.729 111.6 263.463 112.2C261.196 112.867 258.529 113.2 255.462 113.2C251.729 113.2 248.596 112.7 246.063 111.7C243.596 110.7 241.629 109.267 240.163 107.4C238.696 105.467 237.663 103.167 237.063 100.5C236.463 97.7667 236.163 94.6667 236.163 91.2V45.9ZM270.585 85.9C270.585 82.0333 271.185 78.4333 272.385 75.1C273.585 71.7 275.285 68.7667 277.485 66.3C279.752 63.8333 282.485 61.9 285.685 60.5C288.885 59.1 292.485 58.4 296.485 58.4C301.418 58.4 306.085 59.3 310.485 61.1L307.885 71C306.485 70.4 304.885 69.9 303.085 69.5C301.352 69.1 299.485 68.9 297.485 68.9C292.752 68.9 289.152 70.4 286.685 73.4C284.218 76.3333 282.985 80.5 282.985 85.9C282.985 91.1 284.152 95.2333 286.485 98.3C288.818 101.3 292.752 102.8 298.285 102.8C300.352 102.8 302.385 102.6 304.385 102.2C306.385 101.8 308.118 101.3 309.585 100.7L311.285 110.7C309.952 111.367 307.918 111.967 305.185 112.5C302.518 113.033 299.752 113.3 296.885 113.3C292.418 113.3 288.518 112.633 285.185 111.3C281.918 109.9 279.185 108 276.985 105.6C274.852 103.133 273.252 100.233 272.185 96.9C271.118 93.5 270.585 89.8333 270.585 85.9ZM316.653 112V36.4L328.753 34.4V60.3C330.086 59.8333 331.62 59.4333 333.353 59.1C335.153 58.7667 336.92 58.6 338.653 58.6C342.853 58.6 346.32 59.2 349.053 60.4C351.853 61.5333 354.086 63.1667 355.753 65.3C357.42 67.3667 358.586 69.8667 359.253 72.8C359.986 75.7333 360.353 79 360.353 82.6V112H348.253V84.5C348.253 81.7 348.053 79.3333 347.653 77.4C347.32 75.4 346.72 73.8 345.853 72.6C345.053 71.3333 343.953 70.4333 342.553 69.9C341.153 69.3 339.42 69 337.353 69C335.753 69 334.12 69.1667 332.453 69.5C330.786 69.8333 329.553 70.1333 328.753 70.4V112H316.653Z"/>
</svg>
