<svg width="1280" height="640" viewBox="0 0 1280 640" fill="none" xmlns="http://www.w3.org/2000/svg">
<rect width="1280" height="640" fill="#18181B"/>
<path d="M376.344 355.416C371.117 356.76 364.323 358.104 355.96 359.448C347.597 360.941 338.413 361.688 328.408 361.688C319 361.688 311.085 360.344 304.664 357.656C298.392 354.968 293.315 351.235 289.432 346.456C285.699 341.677 283.011 336.003 281.368 329.432C279.725 322.712 278.904 315.395 278.904 307.48V241.848H306.008V303.224C306.008 315.768 307.8 324.728 311.384 330.104C315.117 335.48 321.539 338.168 330.648 338.168C333.933 338.168 337.368 338.019 340.952 337.72C344.685 337.421 347.448 337.048 349.24 336.6V241.848H376.344V355.416ZM479.61 300.984C479.61 288.888 476.847 279.48 471.322 272.76C465.946 266.04 457.21 262.68 445.114 262.68C442.575 262.68 439.887 262.829 437.05 263.128C434.362 263.277 431.674 263.725 428.986 264.472V331.448C431.375 333.091 434.511 334.659 438.394 336.152C442.426 337.496 446.682 338.168 451.162 338.168C461.018 338.168 468.186 334.808 472.666 328.088C477.295 321.368 479.61 312.333 479.61 300.984ZM507.386 300.536C507.386 309.496 506.191 317.709 503.802 325.176C501.562 332.643 498.276 339.064 493.946 344.44C489.615 349.816 484.164 353.997 477.594 356.984C471.172 359.971 463.855 361.464 455.642 361.464C450.116 361.464 445.039 360.792 440.41 359.448C435.78 358.104 431.972 356.611 428.986 354.968V400.44H401.882V245.656C407.407 244.163 414.202 242.744 422.266 241.4C430.33 240.056 438.842 239.384 447.802 239.384C457.06 239.384 465.348 240.803 472.666 243.64C479.983 246.477 486.18 250.584 491.258 255.96C496.484 261.187 500.442 267.608 503.13 275.224C505.967 282.691 507.386 291.128 507.386 300.536Z" fill="#F3B549"/>
<path d="M574.071 185.176C580.343 185.176 585.869 185.773 590.647 186.968C595.426 188.013 599.01 188.984 601.399 189.88L596.247 212.28C593.709 211.085 590.722 210.115 587.287 209.368C584.002 208.621 580.418 208.248 576.535 208.248C572.205 208.248 568.546 208.92 565.559 210.264C562.573 211.459 560.183 213.176 558.391 215.416C556.599 217.656 555.33 220.419 554.583 223.704C553.837 226.84 553.463 230.275 553.463 234.008V241.848H596.023V264.472H553.463V359H526.359V233.56C526.359 218.477 530.317 206.68 538.231 198.168C546.146 189.507 558.093 185.176 574.071 185.176ZM598.403 300.984C598.403 290.68 599.897 281.645 602.883 273.88C606.019 266.115 610.126 259.693 615.203 254.616C620.281 249.389 626.105 245.507 632.675 242.968C639.246 240.28 645.966 238.936 652.835 238.936C668.963 238.936 681.507 243.939 690.467 253.944C699.577 263.949 704.131 278.883 704.131 298.744C704.131 300.237 704.057 301.955 703.907 303.896C703.907 305.688 703.833 307.331 703.683 308.824H626.403C627.15 318.232 630.435 325.549 636.259 330.776C642.233 335.853 650.819 338.392 662.019 338.392C668.59 338.392 674.563 337.795 679.939 336.6C685.465 335.405 689.795 334.136 692.931 332.792L696.515 354.968C695.022 355.715 692.931 356.536 690.243 357.432C687.705 358.179 684.718 358.851 681.283 359.448C677.998 360.195 674.414 360.792 670.531 361.24C666.649 361.688 662.691 361.912 658.659 361.912C648.355 361.912 639.395 360.419 631.779 357.432C624.163 354.296 617.891 350.04 612.963 344.664C608.035 339.139 604.377 332.717 601.987 325.4C599.598 317.933 598.403 309.795 598.403 300.984ZM677.027 288.888C677.027 285.155 676.505 281.645 675.459 278.36C674.414 274.925 672.846 272.013 670.755 269.624C668.814 267.085 666.35 265.144 663.363 263.8C660.526 262.307 657.091 261.56 653.059 261.56C648.878 261.56 645.219 262.381 642.083 264.024C638.947 265.517 636.259 267.533 634.019 270.072C631.929 272.611 630.286 275.523 629.091 278.808C627.897 282.093 627.075 285.453 626.627 288.888H677.027ZM722.564 210.936L749.668 206.456V241.848H791.332V264.472H749.668V312.184C749.668 321.592 751.161 328.312 754.148 332.344C757.135 336.376 762.212 338.392 769.38 338.392C774.308 338.392 778.639 337.869 782.372 336.824C786.255 335.779 789.316 334.808 791.556 333.912L796.036 355.416C792.9 356.76 788.793 358.104 783.716 359.448C778.639 360.941 772.665 361.688 765.796 361.688C757.433 361.688 750.415 360.568 744.74 358.328C739.215 356.088 734.809 352.877 731.524 348.696C728.239 344.365 725.924 339.213 724.58 333.24C723.236 327.117 722.564 320.173 722.564 312.408V210.936ZM799.671 300.536C799.671 291.875 801.015 283.811 803.703 276.344C806.391 268.728 810.199 262.157 815.127 256.632C820.204 251.107 826.327 246.776 833.495 243.64C840.663 240.504 848.727 238.936 857.687 238.936C868.737 238.936 879.191 240.952 889.047 244.984L883.223 267.16C880.087 265.816 876.503 264.696 872.471 263.8C868.588 262.904 864.407 262.456 859.927 262.456C849.324 262.456 841.26 265.816 835.735 272.536C830.209 279.107 827.447 288.44 827.447 300.536C827.447 312.184 830.06 321.443 835.287 328.312C840.513 335.032 849.324 338.392 861.719 338.392C866.348 338.392 870.903 337.944 875.383 337.048C879.863 336.152 883.745 335.032 887.031 333.688L890.839 356.088C887.852 357.581 883.297 358.925 877.175 360.12C871.201 361.315 865.004 361.912 858.583 361.912C848.577 361.912 839.841 360.419 832.375 357.432C825.057 354.296 818.935 350.04 814.007 344.664C809.228 339.139 805.644 332.643 803.255 325.176C800.865 317.56 799.671 309.347 799.671 300.536ZM902.863 359V189.656L929.967 185.176V243.192C932.954 242.147 936.388 241.251 940.271 240.504C944.303 239.757 948.26 239.384 952.143 239.384C961.551 239.384 969.316 240.728 975.439 243.416C981.711 245.955 986.714 249.613 990.447 254.392C994.18 259.021 996.794 264.621 998.287 271.192C999.93 277.763 1000.75 285.08 1000.75 293.144V359H973.647V297.4C973.647 291.128 973.199 285.827 972.303 281.496C971.556 277.016 970.212 273.432 968.271 270.744C966.479 267.907 964.015 265.891 960.879 264.696C957.743 263.352 953.86 262.68 949.231 262.68C945.647 262.68 941.988 263.053 938.255 263.8C934.522 264.547 931.759 265.219 929.967 265.816V359H902.863Z" fill="#FCFCFC"/>
<path d="M377.943 478C377.385 476.504 376.857 475.067 376.359 473.688C375.86 472.309 375.376 470.96 374.907 469.64H360.079C359.58 470.96 359.081 472.309 358.583 473.688C358.084 475.067 357.571 476.504 357.043 478H353.919C355.092 474.832 356.192 471.884 357.219 469.156C358.245 466.399 359.243 463.803 360.211 461.368C361.208 458.904 362.191 456.543 363.159 454.284C364.127 452.025 365.153 449.767 366.239 447.508H368.879C369.964 449.767 370.991 452.025 371.959 454.284C372.927 456.543 373.895 458.904 374.863 461.368C375.86 463.803 376.872 466.399 377.899 469.156C378.925 471.884 380.04 474.832 381.243 478H377.943ZM367.471 450.94C366.356 453.463 365.271 456.029 364.215 458.64C363.188 461.251 362.117 464.067 361.003 467.088H373.983C372.868 464.067 371.783 461.251 370.727 458.64C369.671 456.029 368.585 453.463 367.471 450.94ZM403.534 477.296C402.683 477.589 401.598 477.868 400.278 478.132C398.958 478.396 397.286 478.528 395.262 478.528C393.59 478.528 392.065 478.264 390.686 477.736C389.337 477.179 388.163 476.387 387.166 475.36C386.198 474.333 385.435 473.087 384.878 471.62C384.35 470.153 384.086 468.496 384.086 466.648C384.086 464.917 384.306 463.333 384.746 461.896C385.215 460.429 385.89 459.168 386.77 458.112C387.65 457.056 388.721 456.235 389.982 455.648C391.273 455.061 392.739 454.768 394.382 454.768C395.878 454.768 397.169 454.988 398.254 455.428C399.369 455.839 400.175 456.235 400.674 456.616V444.384L403.534 443.856V477.296ZM400.674 459.388C400.41 459.183 400.073 458.963 399.662 458.728C399.281 458.493 398.826 458.273 398.298 458.068C397.77 457.863 397.198 457.701 396.582 457.584C395.966 457.437 395.321 457.364 394.646 457.364C393.238 457.364 392.05 457.613 391.082 458.112C390.143 458.611 389.381 459.285 388.794 460.136C388.207 460.957 387.782 461.94 387.518 463.084C387.254 464.199 387.122 465.387 387.122 466.648C387.122 469.64 387.87 471.943 389.366 473.556C390.862 475.14 392.842 475.932 395.306 475.932C396.714 475.932 397.843 475.873 398.694 475.756C399.574 475.609 400.234 475.463 400.674 475.316V459.388ZM417.966 474.92C418.582 473.659 419.213 472.221 419.858 470.608C420.504 468.965 421.12 467.279 421.706 465.548C422.322 463.788 422.88 462.028 423.378 460.268C423.906 458.479 424.346 456.807 424.698 455.252H427.558C427.03 457.335 426.444 459.388 425.798 461.412C425.153 463.436 424.464 465.416 423.73 467.352C423.026 469.288 422.278 471.151 421.486 472.94C420.724 474.729 419.976 476.416 419.242 478H416.514C415.752 476.416 414.989 474.729 414.226 472.94C413.464 471.151 412.716 469.288 411.982 467.352C411.278 465.416 410.604 463.436 409.958 461.412C409.313 459.388 408.726 457.335 408.198 455.252H411.234C411.586 456.807 412.012 458.479 412.51 460.268C413.038 462.028 413.596 463.788 414.182 465.548C414.798 467.279 415.429 468.965 416.074 470.608C416.72 472.221 417.35 473.659 417.966 474.92ZM439.415 475.932C440.53 475.932 441.498 475.903 442.319 475.844C443.17 475.756 443.888 475.653 444.475 475.536V467.528C444.152 467.381 443.639 467.235 442.935 467.088C442.231 466.912 441.263 466.824 440.031 466.824C439.327 466.824 438.594 466.883 437.831 467C437.068 467.088 436.364 467.308 435.719 467.66C435.074 467.983 434.546 468.437 434.135 469.024C433.724 469.611 433.519 470.388 433.519 471.356C433.519 472.207 433.651 472.925 433.915 473.512C434.208 474.099 434.604 474.568 435.103 474.92C435.631 475.272 436.247 475.536 436.951 475.712C437.684 475.859 438.506 475.932 439.415 475.932ZM439.151 454.724C440.647 454.724 441.908 454.944 442.935 455.384C443.991 455.795 444.842 456.381 445.487 457.144C446.132 457.877 446.602 458.757 446.895 459.784C447.188 460.811 447.335 461.925 447.335 463.128V477.472C447.042 477.56 446.616 477.663 446.059 477.78C445.502 477.868 444.856 477.971 444.123 478.088C443.39 478.205 442.568 478.293 441.659 478.352C440.779 478.44 439.87 478.484 438.931 478.484C437.728 478.484 436.614 478.352 435.587 478.088C434.59 477.824 433.71 477.413 432.947 476.856C432.214 476.269 431.627 475.536 431.187 474.656C430.776 473.747 430.571 472.647 430.571 471.356C430.571 470.124 430.806 469.068 431.275 468.188C431.744 467.308 432.404 466.589 433.255 466.032C434.106 465.445 435.118 465.02 436.291 464.756C437.464 464.492 438.74 464.36 440.119 464.36C440.53 464.36 440.955 464.389 441.395 464.448C441.864 464.477 442.304 464.536 442.715 464.624C443.155 464.683 443.522 464.756 443.815 464.844C444.138 464.903 444.358 464.961 444.475 465.02V463.612C444.475 462.82 444.416 462.057 444.299 461.324C444.182 460.561 443.918 459.887 443.507 459.3C443.126 458.684 442.568 458.2 441.835 457.848C441.131 457.467 440.192 457.276 439.019 457.276C437.347 457.276 436.1 457.393 435.279 457.628C434.458 457.863 433.856 458.053 433.475 458.2L433.079 455.692C433.578 455.457 434.34 455.237 435.367 455.032C436.423 454.827 437.684 454.724 439.151 454.724ZM454.63 456.044C455.48 455.809 456.624 455.545 458.062 455.252C459.499 454.959 461.259 454.812 463.342 454.812C465.072 454.812 466.51 455.061 467.654 455.56C468.827 456.059 469.751 456.777 470.426 457.716C471.13 458.625 471.628 459.725 471.922 461.016C472.215 462.307 472.362 463.729 472.362 465.284V478H469.502V466.208C469.502 464.595 469.384 463.231 469.15 462.116C468.944 461.001 468.578 460.092 468.05 459.388C467.551 458.684 466.876 458.185 466.026 457.892C465.204 457.569 464.163 457.408 462.902 457.408C461.552 457.408 460.379 457.481 459.382 457.628C458.414 457.775 457.783 457.907 457.49 458.024V478H454.63V456.044ZM489.096 478.484C487.336 478.484 485.782 478.205 484.432 477.648C483.083 477.091 481.954 476.299 481.044 475.272C480.164 474.216 479.49 472.969 479.02 471.532C478.551 470.065 478.316 468.452 478.316 466.692C478.316 464.903 478.551 463.275 479.02 461.808C479.519 460.341 480.223 459.08 481.132 458.024C482.042 456.968 483.142 456.161 484.432 455.604C485.723 455.017 487.175 454.724 488.788 454.724C490.02 454.724 491.164 454.827 492.22 455.032C493.306 455.237 494.142 455.501 494.728 455.824L493.98 458.288C493.394 457.995 492.734 457.76 492 457.584C491.267 457.408 490.284 457.32 489.052 457.32C486.53 457.32 484.608 458.141 483.288 459.784C481.998 461.397 481.352 463.7 481.352 466.692C481.352 468.041 481.499 469.288 481.792 470.432C482.086 471.547 482.555 472.515 483.2 473.336C483.875 474.128 484.726 474.759 485.752 475.228C486.808 475.668 488.084 475.888 489.58 475.888C490.812 475.888 491.839 475.756 492.66 475.492C493.511 475.199 494.127 474.949 494.508 474.744L495.124 477.208C494.596 477.501 493.76 477.78 492.616 478.044C491.502 478.337 490.328 478.484 489.096 478.484ZM498.555 466.604C498.555 464.609 498.833 462.879 499.391 461.412C499.977 459.916 500.725 458.669 501.635 457.672C502.573 456.675 503.629 455.941 504.803 455.472C506.005 454.973 507.237 454.724 508.499 454.724C511.285 454.724 513.5 455.633 515.143 457.452C516.815 459.271 517.651 462.072 517.651 465.856C517.651 466.091 517.636 466.325 517.607 466.56C517.607 466.795 517.592 467.015 517.563 467.22H501.591C501.679 470.007 502.368 472.148 503.659 473.644C504.949 475.14 507.003 475.888 509.819 475.888C511.373 475.888 512.605 475.741 513.515 475.448C514.424 475.155 515.084 474.905 515.495 474.7L516.023 477.164C515.612 477.399 514.835 477.677 513.691 478C512.576 478.323 511.256 478.484 509.731 478.484C507.736 478.484 506.035 478.191 504.627 477.604C503.219 477.017 502.06 476.196 501.151 475.14C500.241 474.084 499.581 472.837 499.171 471.4C498.76 469.933 498.555 468.335 498.555 466.604ZM514.703 464.8C514.644 462.424 514.087 460.576 513.031 459.256C511.975 457.936 510.479 457.276 508.543 457.276C507.516 457.276 506.592 457.481 505.771 457.892C504.979 458.303 504.275 458.86 503.659 459.564C503.072 460.239 502.603 461.031 502.251 461.94C501.928 462.849 501.737 463.803 501.679 464.8H514.703ZM542.108 477.296C541.258 477.589 540.172 477.868 538.852 478.132C537.532 478.396 535.86 478.528 533.836 478.528C532.164 478.528 530.639 478.264 529.26 477.736C527.911 477.179 526.738 476.387 525.74 475.36C524.772 474.333 524.01 473.087 523.452 471.62C522.924 470.153 522.66 468.496 522.66 466.648C522.66 464.917 522.88 463.333 523.32 461.896C523.79 460.429 524.464 459.168 525.344 458.112C526.224 457.056 527.295 456.235 528.556 455.648C529.847 455.061 531.314 454.768 532.956 454.768C534.452 454.768 535.743 454.988 536.828 455.428C537.943 455.839 538.75 456.235 539.248 456.616V444.384L542.108 443.856V477.296ZM539.248 459.388C538.984 459.183 538.647 458.963 538.236 458.728C537.855 458.493 537.4 458.273 536.872 458.068C536.344 457.863 535.772 457.701 535.156 457.584C534.54 457.437 533.895 457.364 533.22 457.364C531.812 457.364 530.624 457.613 529.656 458.112C528.718 458.611 527.955 459.285 527.368 460.136C526.782 460.957 526.356 461.94 526.092 463.084C525.828 464.199 525.696 465.387 525.696 466.648C525.696 469.64 526.444 471.943 527.94 473.556C529.436 475.14 531.416 475.932 533.88 475.932C535.288 475.932 536.418 475.873 537.268 475.756C538.148 475.609 538.808 475.463 539.248 475.316V459.388ZM568.048 443.856C569.28 443.856 570.278 443.959 571.04 444.164C571.832 444.34 572.346 444.501 572.58 444.648L572.008 447.112C571.686 446.965 571.202 446.819 570.556 446.672C569.94 446.496 569.148 446.408 568.18 446.408C566.156 446.408 564.704 446.921 563.824 447.948C562.974 448.975 562.548 450.617 562.548 452.876V455.252H571.7V457.672H562.548V478H559.688V452.788C559.688 449.825 560.363 447.596 561.712 446.1C563.091 444.604 565.203 443.856 568.048 443.856ZM574.867 466.604C574.867 464.609 575.146 462.879 575.703 461.412C576.29 459.916 577.038 458.669 577.947 457.672C578.886 456.675 579.942 455.941 581.115 455.472C582.318 454.973 583.55 454.724 584.811 454.724C587.598 454.724 589.813 455.633 591.455 457.452C593.127 459.271 593.963 462.072 593.963 465.856C593.963 466.091 593.949 466.325 593.919 466.56C593.919 466.795 593.905 467.015 593.875 467.22H577.903C577.991 470.007 578.681 472.148 579.971 473.644C581.262 475.14 583.315 475.888 586.131 475.888C587.686 475.888 588.918 475.741 589.827 475.448C590.737 475.155 591.397 474.905 591.807 474.7L592.335 477.164C591.925 477.399 591.147 477.677 590.003 478C588.889 478.323 587.569 478.484 586.043 478.484C584.049 478.484 582.347 478.191 580.939 477.604C579.531 477.017 578.373 476.196 577.463 475.14C576.554 474.084 575.894 472.837 575.483 471.4C575.073 469.933 574.867 468.335 574.867 466.604ZM591.015 464.8C590.957 462.424 590.399 460.576 589.343 459.256C588.287 457.936 586.791 457.276 584.855 457.276C583.829 457.276 582.905 457.481 582.083 457.892C581.291 458.303 580.587 458.86 579.971 459.564C579.385 460.239 578.915 461.031 578.563 461.94C578.241 462.849 578.05 463.803 577.991 464.8H591.015ZM603.021 455.252H612.085V457.672H603.021V469.772C603.021 471.063 603.123 472.119 603.329 472.94C603.563 473.732 603.886 474.348 604.297 474.788C604.707 475.228 605.206 475.521 605.793 475.668C606.379 475.815 607.025 475.888 607.729 475.888C608.931 475.888 609.899 475.756 610.633 475.492C611.366 475.199 611.938 474.935 612.349 474.7L613.053 477.076C612.642 477.34 611.923 477.648 610.897 478C609.87 478.323 608.755 478.484 607.553 478.484C606.145 478.484 604.957 478.308 603.989 477.956C603.05 477.575 602.287 477.017 601.701 476.284C601.143 475.521 600.747 474.583 600.513 473.468C600.278 472.353 600.161 471.033 600.161 469.508V448.564L603.021 448.036V455.252ZM626.768 478.484C625.008 478.484 623.454 478.205 622.104 477.648C620.755 477.091 619.626 476.299 618.716 475.272C617.836 474.216 617.162 472.969 616.692 471.532C616.223 470.065 615.988 468.452 615.988 466.692C615.988 464.903 616.223 463.275 616.692 461.808C617.191 460.341 617.895 459.08 618.804 458.024C619.714 456.968 620.814 456.161 622.104 455.604C623.395 455.017 624.847 454.724 626.46 454.724C627.692 454.724 628.836 454.827 629.892 455.032C630.978 455.237 631.814 455.501 632.4 455.824L631.652 458.288C631.066 457.995 630.406 457.76 629.672 457.584C628.939 457.408 627.956 457.32 626.724 457.32C624.202 457.32 622.28 458.141 620.96 459.784C619.67 461.397 619.024 463.7 619.024 466.692C619.024 468.041 619.171 469.288 619.464 470.432C619.758 471.547 620.227 472.515 620.872 473.336C621.547 474.128 622.398 474.759 623.424 475.228C624.48 475.668 625.756 475.888 627.252 475.888C628.484 475.888 629.511 475.756 630.332 475.492C631.183 475.199 631.799 474.949 632.18 474.744L632.796 477.208C632.268 477.501 631.432 477.78 630.288 478.044C629.174 478.337 628 478.484 626.768 478.484ZM637.591 478V444.384L640.451 443.856V455.912C641.389 455.56 642.343 455.296 643.311 455.12C644.279 454.915 645.247 454.812 646.215 454.812C647.975 454.812 649.441 455.061 650.615 455.56C651.788 456.059 652.727 456.777 653.431 457.716C654.135 458.625 654.619 459.725 654.883 461.016C655.176 462.307 655.323 463.729 655.323 465.284V478H652.463V466.208C652.463 464.595 652.345 463.231 652.111 462.116C651.905 461.001 651.539 460.092 651.011 459.388C650.512 458.684 649.837 458.185 648.987 457.892C648.136 457.569 647.065 457.408 645.775 457.408C645.276 457.408 644.733 457.452 644.147 457.54C643.589 457.628 643.061 457.731 642.563 457.848C642.064 457.936 641.609 458.039 641.199 458.156C640.817 458.273 640.568 458.361 640.451 458.42V478H637.591ZM682.069 478.484C680.309 478.484 678.754 478.205 677.405 477.648C676.056 477.091 674.926 476.299 674.017 475.272C673.137 474.216 672.462 472.969 671.993 471.532C671.524 470.065 671.289 468.452 671.289 466.692C671.289 464.903 671.524 463.275 671.993 461.808C672.492 460.341 673.196 459.08 674.105 458.024C675.014 456.968 676.114 456.161 677.405 455.604C678.696 455.017 680.148 454.724 681.761 454.724C682.993 454.724 684.137 454.827 685.193 455.032C686.278 455.237 687.114 455.501 687.701 455.824L686.953 458.288C686.366 457.995 685.706 457.76 684.973 457.584C684.24 457.408 683.257 457.32 682.025 457.32C679.502 457.32 677.581 458.141 676.261 459.784C674.97 461.397 674.325 463.7 674.325 466.692C674.325 468.041 674.472 469.288 674.765 470.432C675.058 471.547 675.528 472.515 676.173 473.336C676.848 474.128 677.698 474.759 678.725 475.228C679.781 475.668 681.057 475.888 682.553 475.888C683.785 475.888 684.812 475.756 685.633 475.492C686.484 475.199 687.1 474.949 687.481 474.744L688.097 477.208C687.569 477.501 686.733 477.78 685.589 478.044C684.474 478.337 683.301 478.484 682.069 478.484ZM698.655 478.396C697.687 478.367 696.837 478.235 696.103 478C695.399 477.795 694.798 477.472 694.299 477.032C693.83 476.563 693.463 475.976 693.199 475.272C692.965 474.539 692.847 473.629 692.847 472.544V444.384L695.707 443.856V472.456C695.707 473.16 695.766 473.732 695.883 474.172C696.03 474.583 696.235 474.92 696.499 475.184C696.763 475.419 697.101 475.595 697.511 475.712C697.951 475.829 698.465 475.932 699.051 476.02L698.655 478.396ZM706.966 478H704.106V455.252H706.966V478ZM707.626 448.388C707.626 449.063 707.421 449.605 707.01 450.016C706.6 450.397 706.101 450.588 705.514 450.588C704.928 450.588 704.429 450.397 704.018 450.016C703.608 449.605 703.402 449.063 703.402 448.388C703.402 447.713 703.608 447.185 704.018 446.804C704.429 446.393 704.928 446.188 705.514 446.188C706.101 446.188 706.6 446.393 707.01 446.804C707.421 447.185 707.626 447.713 707.626 448.388ZM713.184 466.604C713.184 464.609 713.462 462.879 714.02 461.412C714.606 459.916 715.354 458.669 716.264 457.672C717.202 456.675 718.258 455.941 719.432 455.472C720.634 454.973 721.866 454.724 723.128 454.724C725.914 454.724 728.129 455.633 729.772 457.452C731.444 459.271 732.28 462.072 732.28 465.856C732.28 466.091 732.265 466.325 732.236 466.56C732.236 466.795 732.221 467.015 732.192 467.22H716.22C716.308 470.007 716.997 472.148 718.288 473.644C719.578 475.14 721.632 475.888 724.448 475.888C726.002 475.888 727.234 475.741 728.144 475.448C729.053 475.155 729.713 474.905 730.124 474.7L730.652 477.164C730.241 477.399 729.464 477.677 728.32 478C727.205 478.323 725.885 478.484 724.36 478.484C722.365 478.484 720.664 478.191 719.256 477.604C717.848 477.017 716.689 476.196 715.78 475.14C714.87 474.084 714.21 472.837 713.8 471.4C713.389 469.933 713.184 468.335 713.184 466.604ZM729.332 464.8C729.273 462.424 728.716 460.576 727.66 459.256C726.604 457.936 725.108 457.276 723.172 457.276C722.145 457.276 721.221 457.481 720.4 457.892C719.608 458.303 718.904 458.86 718.288 459.564C717.701 460.239 717.232 461.031 716.88 461.94C716.557 462.849 716.366 463.803 716.308 464.8H729.332ZM738.653 456.044C739.504 455.809 740.648 455.545 742.085 455.252C743.522 454.959 745.282 454.812 747.365 454.812C749.096 454.812 750.533 455.061 751.677 455.56C752.85 456.059 753.774 456.777 754.449 457.716C755.153 458.625 755.652 459.725 755.945 461.016C756.238 462.307 756.385 463.729 756.385 465.284V478H753.525V466.208C753.525 464.595 753.408 463.231 753.173 462.116C752.968 461.001 752.601 460.092 752.073 459.388C751.574 458.684 750.9 458.185 750.049 457.892C749.228 457.569 748.186 457.408 746.925 457.408C745.576 457.408 744.402 457.481 743.405 457.628C742.437 457.775 741.806 457.907 741.513 458.024V478H738.653V456.044ZM766.388 455.252H775.452V457.672H766.388V469.772C766.388 471.063 766.491 472.119 766.696 472.94C766.931 473.732 767.253 474.348 767.664 474.788C768.075 475.228 768.573 475.521 769.16 475.668C769.747 475.815 770.392 475.888 771.096 475.888C772.299 475.888 773.267 475.756 774 475.492C774.733 475.199 775.305 474.935 775.716 474.7L776.42 477.076C776.009 477.34 775.291 477.648 774.264 478C773.237 478.323 772.123 478.484 770.92 478.484C769.512 478.484 768.324 478.308 767.356 477.956C766.417 477.575 765.655 477.017 765.068 476.284C764.511 475.521 764.115 474.583 763.88 473.468C763.645 472.353 763.528 471.033 763.528 469.508V448.564L766.388 448.036V455.252ZM793.591 456.616C794.09 456.235 794.882 455.839 795.967 455.428C797.082 454.988 798.387 454.768 799.883 454.768C801.526 454.768 802.978 455.061 804.239 455.648C805.53 456.235 806.615 457.056 807.495 458.112C808.375 459.168 809.035 460.429 809.475 461.896C809.945 463.333 810.179 464.917 810.179 466.648C810.179 468.496 809.901 470.153 809.343 471.62C808.815 473.087 808.053 474.333 807.055 475.36C806.087 476.387 804.914 477.179 803.535 477.736C802.186 478.264 800.675 478.528 799.003 478.528C796.979 478.528 795.307 478.396 793.987 478.132C792.667 477.868 791.582 477.589 790.731 477.296V444.384L793.591 443.856V456.616ZM793.591 475.316C794.031 475.463 794.677 475.609 795.527 475.756C796.407 475.873 797.551 475.932 798.959 475.932C801.423 475.932 803.403 475.14 804.899 473.556C806.395 471.943 807.143 469.64 807.143 466.648C807.143 465.387 807.011 464.199 806.747 463.084C806.483 461.94 806.058 460.957 805.471 460.136C804.885 459.285 804.107 458.611 803.139 458.112C802.201 457.613 801.027 457.364 799.619 457.364C798.945 457.364 798.299 457.437 797.683 457.584C797.067 457.701 796.495 457.863 795.967 458.068C795.439 458.273 794.97 458.493 794.559 458.728C794.178 458.963 793.855 459.183 793.591 459.388V475.316ZM833.852 477.208C833.001 477.443 831.857 477.707 830.42 478C828.982 478.293 827.222 478.44 825.14 478.44C823.438 478.44 822.016 478.191 820.872 477.692C819.728 477.193 818.804 476.489 818.1 475.58C817.396 474.671 816.882 473.571 816.56 472.28C816.266 470.989 816.12 469.567 816.12 468.012V455.252H818.98V467.088C818.98 468.701 819.097 470.065 819.332 471.18C819.566 472.295 819.948 473.204 820.476 473.908C821.004 474.583 821.678 475.081 822.5 475.404C823.35 475.697 824.377 475.844 825.58 475.844C826.929 475.844 828.102 475.771 829.1 475.624C830.097 475.477 830.728 475.345 830.992 475.228V455.252H833.852V477.208ZM844.294 478H841.434V455.252H844.294V478ZM844.954 448.388C844.954 449.063 844.749 449.605 844.338 450.016C843.928 450.397 843.429 450.588 842.842 450.588C842.256 450.588 841.757 450.397 841.346 450.016C840.936 449.605 840.73 449.063 840.73 448.388C840.73 447.713 840.936 447.185 841.346 446.804C841.757 446.393 842.256 446.188 842.842 446.188C843.429 446.188 843.928 446.393 844.338 446.804C844.749 447.185 844.954 447.713 844.954 448.388ZM857.64 478.396C856.672 478.367 855.821 478.235 855.088 478C854.384 477.795 853.782 477.472 853.284 477.032C852.814 476.563 852.448 475.976 852.184 475.272C851.949 474.539 851.832 473.629 851.832 472.544V444.384L854.692 443.856V472.456C854.692 473.16 854.75 473.732 854.868 474.172C855.014 474.583 855.22 474.92 855.484 475.184C855.748 475.419 856.085 475.595 856.496 475.712C856.936 475.829 857.449 475.932 858.036 476.02L857.64 478.396ZM881.175 477.296C880.324 477.589 879.239 477.868 877.919 478.132C876.599 478.396 874.927 478.528 872.903 478.528C871.231 478.528 869.705 478.264 868.327 477.736C866.977 477.179 865.804 476.387 864.807 475.36C863.839 474.333 863.076 473.087 862.519 471.62C861.991 470.153 861.727 468.496 861.727 466.648C861.727 464.917 861.947 463.333 862.387 461.896C862.856 460.429 863.531 459.168 864.411 458.112C865.291 457.056 866.361 456.235 867.623 455.648C868.913 455.061 870.38 454.768 872.023 454.768C873.519 454.768 874.809 454.988 875.895 455.428C877.009 455.839 877.816 456.235 878.315 456.616V444.384L881.175 443.856V477.296ZM878.315 459.388C878.051 459.183 877.713 458.963 877.303 458.728C876.921 458.493 876.467 458.273 875.939 458.068C875.411 457.863 874.839 457.701 874.223 457.584C873.607 457.437 872.961 457.364 872.287 457.364C870.879 457.364 869.691 457.613 868.723 458.112C867.784 458.611 867.021 459.285 866.435 460.136C865.848 460.957 865.423 461.94 865.159 463.084C864.895 464.199 864.763 465.387 864.763 466.648C864.763 469.64 865.511 471.943 867.007 473.556C868.503 475.14 870.483 475.932 872.947 475.932C874.355 475.932 875.484 475.873 876.335 475.756C877.215 475.609 877.875 475.463 878.315 475.316V459.388ZM887.379 466.604C887.379 464.609 887.658 462.879 888.215 461.412C888.802 459.916 889.55 458.669 890.459 457.672C891.398 456.675 892.454 455.941 893.627 455.472C894.83 454.973 896.062 454.724 897.323 454.724C900.11 454.724 902.324 455.633 903.967 457.452C905.639 459.271 906.475 462.072 906.475 465.856C906.475 466.091 906.46 466.325 906.431 466.56C906.431 466.795 906.416 467.015 906.387 467.22H890.415C890.503 470.007 891.192 472.148 892.483 473.644C893.774 475.14 895.827 475.888 898.643 475.888C900.198 475.888 901.43 475.741 902.339 475.448C903.248 475.155 903.908 474.905 904.319 474.7L904.847 477.164C904.436 477.399 903.659 477.677 902.515 478C901.4 478.323 900.08 478.484 898.555 478.484C896.56 478.484 894.859 478.191 893.451 477.604C892.043 477.017 890.884 476.196 889.975 475.14C889.066 474.084 888.406 472.837 887.995 471.4C887.584 469.933 887.379 468.335 887.379 466.604ZM903.527 464.8C903.468 462.424 902.911 460.576 901.855 459.256C900.799 457.936 899.303 457.276 897.367 457.276C896.34 457.276 895.416 457.481 894.595 457.892C893.803 458.303 893.099 458.86 892.483 459.564C891.896 460.239 891.427 461.031 891.075 461.94C890.752 462.849 890.562 463.803 890.503 464.8H903.527ZM920.592 454.812C921.531 454.812 922.411 454.885 923.232 455.032C924.083 455.179 924.67 455.325 924.992 455.472L924.42 457.936C924.186 457.819 923.702 457.701 922.968 457.584C922.264 457.437 921.326 457.364 920.152 457.364C918.92 457.364 917.923 457.452 917.16 457.628C916.427 457.804 915.943 457.951 915.708 458.068V478H912.848V456.308C913.582 455.985 914.594 455.663 915.884 455.34C917.175 454.988 918.744 454.812 920.592 454.812Z" fill="white" fill-opacity="0.87"/>
</svg>
